<?xml version='1.0' encoding='UTF-8' standalone='no'?>
<!DOCTYPE
  svg>
<!-- Generator: Adobe Illustrator 13.0.1, SVG Export Plug-In . SVG Version: 6.00 Build 14948)  -->
  <svg
  xmlns="http://www.w3.org/2000/svg"
  viewBox="0 0 76.535 46.771"
  enable-background="new 0 0 76.535 46.771"
  x="0px"
  width="1.06299in"
  y="0px"
  xml:space="preserve"
  id="PCB"
  height="0.649597in"
  version="1.1"
  gorn="0">
  <desc>
    <referenceFile>TP4056_Module_pcb.svg</referenceFile>
  </desc>
  <g
    id="silkscreen"
    gorn="0.1">
    <path
      fill="none"
      stroke-width="0.25"
      d="M76.535,41.103v5.669H0V0h76.535v5.669h-2.082c-1.174,0-2.126,0.952-2.126,2.126v31.182c0,1.174,0.952,2.126,2.126,2.126H76.535z"
      stroke="#000000"
    />
    <g
      id="Pin_Labels_1_"
      gorn="0.1.1">
      <g
        id="OUT_-"
        gorn="0.1.1.0">
        <path
          stroke-width="0.01"
          d="M53.616,41.47c0.33,0,0.613,0.076,0.85,0.227s0.414,0.364,0.535,0.642c0.123,0.277,0.184,0.604,0.184,0.978c0,0.277-0.033,0.528-0.1,0.755s-0.166,0.423-0.301,0.589c-0.133,0.166-0.295,0.293-0.488,0.381c-0.195,0.088-0.416,0.131-0.666,0.131s-0.473-0.045-0.668-0.135c-0.197-0.091-0.361-0.218-0.492-0.383c-0.133-0.164-0.232-0.361-0.299-0.593s-0.102-0.481-0.102-0.749c0-0.275,0.035-0.527,0.105-0.758c0.07-0.229,0.172-0.424,0.305-0.586c0.133-0.16,0.295-0.284,0.486-0.369C53.157,41.513,53.374,41.47,53.616,41.47z M54.532,43.312c0-0.263-0.039-0.489-0.113-0.682c-0.076-0.192-0.184-0.337-0.322-0.436c-0.141-0.099-0.299-0.148-0.48-0.148c-0.129,0-0.248,0.027-0.357,0.082s-0.203,0.134-0.281,0.238s-0.141,0.237-0.186,0.399c-0.047,0.162-0.068,0.344-0.068,0.546c0,0.203,0.021,0.387,0.068,0.551c0.045,0.165,0.109,0.301,0.191,0.409c0.084,0.108,0.18,0.189,0.287,0.243s0.227,0.08,0.354,0.08c0.166,0,0.316-0.046,0.455-0.139s0.248-0.236,0.33-0.43S54.532,43.595,54.532,43.312z"
          stroke="#000000"
        />
        <path
          stroke-width="0.01"
          d="M55.739,43.631V41.91c0-0.146,0.029-0.256,0.088-0.329s0.135-0.11,0.23-0.11c0.1,0,0.18,0.037,0.238,0.11s0.088,0.183,0.088,0.329v1.761c0,0.2,0.02,0.367,0.059,0.502c0.041,0.134,0.111,0.238,0.213,0.312c0.1,0.074,0.242,0.11,0.424,0.11c0.252,0,0.43-0.075,0.533-0.226c0.105-0.15,0.156-0.379,0.156-0.685V41.91c0-0.147,0.029-0.258,0.088-0.33c0.057-0.072,0.135-0.109,0.232-0.109c0.096,0,0.174,0.037,0.234,0.109s0.09,0.183,0.09,0.33v1.722c0,0.28-0.023,0.514-0.072,0.7c-0.049,0.188-0.141,0.352-0.275,0.494c-0.115,0.12-0.25,0.208-0.402,0.264c-0.154,0.055-0.332,0.082-0.537,0.082c-0.246,0-0.455-0.029-0.633-0.089c-0.176-0.06-0.318-0.151-0.43-0.275c-0.111-0.125-0.193-0.284-0.246-0.479S55.739,43.902,55.739,43.631z"
          stroke="#000000"
        />
        <path
          stroke-width="0.01"
          d="M61.173,42.13h-0.701v2.6c0,0.149-0.031,0.261-0.09,0.333s-0.135,0.108-0.23,0.108c-0.094,0-0.172-0.036-0.232-0.109s-0.09-0.184-0.09-0.332v-2.6h-0.703c-0.109,0-0.191-0.027-0.244-0.082c-0.055-0.055-0.08-0.127-0.08-0.217c0-0.092,0.027-0.166,0.082-0.219c0.057-0.055,0.137-0.081,0.242-0.081h2.047c0.111,0,0.195,0.027,0.248,0.083c0.055,0.056,0.082,0.128,0.082,0.217c0,0.09-0.027,0.162-0.082,0.217S61.284,42.13,61.173,42.13z"
          stroke="#000000"
        />
        <path
          stroke-width="0.01"
          d="M62.401,44.105h-0.686c-0.104,0-0.184-0.027-0.238-0.082c-0.053-0.055-0.08-0.125-0.08-0.211c0-0.088,0.025-0.159,0.078-0.214s0.133-0.081,0.24-0.081h0.686c0.107,0,0.188,0.026,0.24,0.081s0.078,0.126,0.078,0.214c0,0.086-0.025,0.156-0.078,0.211S62.509,44.105,62.401,44.105z"
          stroke="#000000"
        />
      </g>
      <g
        id="OUT__x2B_"
        gorn="0.1.1.1">
        <path
          stroke-width="0.01"
          d="M52.491,1.094c0.33,0,0.613,0.076,0.85,0.227s0.414,0.364,0.535,0.642C53.999,2.24,54.06,2.566,54.06,2.94c0,0.277-0.033,0.528-0.1,0.755s-0.166,0.423-0.301,0.589c-0.133,0.166-0.295,0.293-0.488,0.381c-0.195,0.088-0.416,0.131-0.666,0.131s-0.473-0.045-0.668-0.135c-0.197-0.091-0.361-0.218-0.492-0.383c-0.133-0.164-0.232-0.361-0.299-0.593s-0.102-0.481-0.102-0.749c0-0.275,0.035-0.527,0.105-0.758c0.07-0.229,0.172-0.424,0.305-0.586c0.133-0.16,0.295-0.284,0.486-0.369C52.032,1.137,52.249,1.094,52.491,1.094z M53.407,2.936c0-0.263-0.039-0.489-0.113-0.682c-0.076-0.192-0.184-0.337-0.322-0.436c-0.141-0.099-0.299-0.148-0.48-0.148c-0.129,0-0.248,0.027-0.357,0.082s-0.203,0.134-0.281,0.238s-0.141,0.237-0.186,0.399c-0.047,0.162-0.068,0.344-0.068,0.546c0,0.203,0.021,0.387,0.068,0.551c0.045,0.165,0.109,0.301,0.191,0.409c0.084,0.108,0.18,0.189,0.287,0.243s0.227,0.08,0.354,0.08c0.166,0,0.316-0.046,0.455-0.139s0.248-0.236,0.33-0.43S53.407,3.219,53.407,2.936z"
          stroke="#000000"
        />
        <path
          stroke-width="0.01"
          d="M54.614,3.255V1.534c0-0.146,0.029-0.256,0.088-0.329s0.135-0.11,0.23-0.11c0.1,0,0.18,0.037,0.238,0.11s0.088,0.183,0.088,0.329v1.761c0,0.2,0.02,0.367,0.059,0.502c0.041,0.134,0.111,0.238,0.213,0.312c0.1,0.074,0.242,0.11,0.424,0.11c0.252,0,0.43-0.075,0.533-0.226c0.105-0.15,0.156-0.379,0.156-0.685V1.534c0-0.147,0.029-0.258,0.088-0.33c0.057-0.072,0.135-0.109,0.232-0.109c0.096,0,0.174,0.037,0.234,0.109s0.09,0.183,0.09,0.33v1.722c0,0.28-0.023,0.514-0.072,0.7c-0.049,0.188-0.141,0.352-0.275,0.494c-0.115,0.12-0.25,0.208-0.402,0.264c-0.154,0.055-0.332,0.082-0.537,0.082c-0.246,0-0.455-0.029-0.633-0.089c-0.176-0.06-0.318-0.151-0.43-0.275c-0.111-0.125-0.193-0.284-0.246-0.479S54.614,3.526,54.614,3.255z"
          stroke="#000000"
        />
        <path
          stroke-width="0.01"
          d="M60.048,1.754h-0.701v2.6c0,0.149-0.031,0.261-0.09,0.333s-0.135,0.108-0.23,0.108c-0.094,0-0.172-0.036-0.232-0.109s-0.09-0.184-0.09-0.332v-2.6h-0.703c-0.109,0-0.191-0.027-0.244-0.082c-0.055-0.055-0.08-0.127-0.08-0.217c0-0.092,0.027-0.166,0.082-0.219c0.057-0.055,0.137-0.081,0.242-0.081h2.047c0.111,0,0.195,0.027,0.248,0.083c0.055,0.056,0.082,0.128,0.082,0.217c0,0.09-0.027,0.162-0.082,0.217S60.159,1.754,60.048,1.754z"
          stroke="#000000"
        />
        <path
          stroke-width="0.01"
          d="M61.985,4.219h-0.561V3.29h-0.83V2.65h0.83V1.715h0.561V2.65h0.834v0.64h-0.834V4.219z"
          stroke="#000000"
        />
      </g>
      <g
        id="B__x2B_"
        gorn="0.1.1.2">
        <path
          stroke-width="0.01"
          d="M67.312,18.814c0,0.171-0.061,0.318-0.181,0.441l-0.266,0.266l0.266,0.261c0.12,0.123,0.181,0.27,0.181,0.441v0.279c0,0.171-0.061,0.318-0.181,0.441l-0.364,0.364c-0.123,0.12-0.27,0.18-0.441,0.18h-1.543c-0.078,0-0.145-0.028-0.2-0.083c-0.056-0.056-0.083-0.121-0.083-0.196v-3.375c0-0.078,0.027-0.145,0.083-0.201c0.056-0.055,0.122-0.083,0.2-0.083h1.543c0.172,0,0.318,0.06,0.441,0.18l0.364,0.364c0.12,0.123,0.181,0.27,0.181,0.441V18.814z M65.062,18.108v1.134h1.26c0.019-0.003,0.035-0.011,0.05-0.022l0.36-0.36c0.009-0.015,0.015-0.032,0.018-0.05V18.54c-0.003-0.018-0.009-0.035-0.018-0.05l-0.36-0.36c-0.015-0.011-0.031-0.019-0.05-0.022H65.062z M66.75,20.498v-0.271c-0.003-0.018-0.009-0.035-0.018-0.05l-0.361-0.354c-0.015-0.012-0.031-0.02-0.05-0.023h-1.259v1.129h1.26c0.019-0.003,0.035-0.011,0.05-0.022l0.36-0.36C66.741,20.532,66.747,20.516,66.75,20.498z"
          stroke="#000000"
        />
        <path
          stroke-width="0.01"
          d="M69.185,20.653v-2.269c0-0.165,0.135-0.299,0.3-0.299l0,0c0.165,0,0.301,0.134,0.301,0.299l0,0v2.269c0,0.165-0.136,0.299-0.301,0.299l0,0C69.319,20.952,69.185,20.818,69.185,20.653L69.185,20.653z"
          stroke="#000000"
        />
        <path
          stroke-width="0.01"
          d="M68.352,19.818c-0.166,0-0.302-0.134-0.302-0.299l0,0c0-0.167,0.136-0.301,0.302-0.301l0,0h2.267c0.165,0,0.302,0.134,0.302,0.301l0,0c0,0.165-0.137,0.299-0.302,0.299l0,0H68.352L68.352,19.818z"
          stroke="#000000"
        />
      </g>
      <g
        id="B_-"
        gorn="0.1.1.3">
        <path
          stroke-width="0.01"
          d="M67.313,26.857c0,0.17-0.061,0.317-0.181,0.44l-0.266,0.266l0.266,0.261c0.12,0.123,0.181,0.27,0.181,0.441v0.279c0,0.17-0.061,0.317-0.181,0.44l-0.364,0.364c-0.123,0.12-0.27,0.18-0.441,0.18h-1.543c-0.078,0-0.145-0.027-0.2-0.082c-0.056-0.057-0.083-0.121-0.083-0.196v-3.375c0-0.078,0.027-0.146,0.083-0.2c0.056-0.056,0.122-0.084,0.2-0.084h1.543c0.172,0,0.318,0.061,0.441,0.181l0.364,0.364c0.12,0.123,0.181,0.27,0.181,0.441V26.857z M65.063,26.15v1.134h1.26c0.019-0.003,0.035-0.011,0.05-0.022l0.36-0.359c0.009-0.016,0.015-0.031,0.018-0.05v-0.271c-0.003-0.018-0.009-0.035-0.018-0.05l-0.36-0.36c-0.015-0.011-0.031-0.018-0.05-0.021H65.063z M66.751,28.54v-0.271c-0.003-0.018-0.009-0.035-0.018-0.05l-0.361-0.354c-0.015-0.012-0.031-0.02-0.05-0.023h-1.259v1.13h1.26c0.019-0.003,0.035-0.011,0.05-0.022l0.36-0.359C66.742,28.574,66.748,28.558,66.751,28.54z"
          stroke="#000000"
        />
        <path
          stroke-width="0.01"
          d="M68.352,27.86c-0.166,0-0.302-0.134-0.302-0.3l0,0c0-0.167,0.136-0.301,0.302-0.301l0,0h2.267c0.165,0,0.302,0.134,0.302,0.301l0,0c0,0.166-0.137,0.3-0.302,0.3l0,0H68.352L68.352,27.86z"
          stroke="#000000"
        />
      </g>
      <path
        stroke-width="0.01"
        d="M8.534,41.923c-0.208,0-0.375-0.169-0.375-0.375l0,0c0-0.208,0.167-0.375,0.375-0.375l0,0h3.402c0.206,0,0.375,0.167,0.375,0.375l0,0c0,0.206-0.169,0.375-0.375,0.375l0,0H8.534L8.534,41.923z"
        stroke="#000000"
        id="_x2013_"
        gorn="0.1.1.4"
      />
      <g
        id="_x2B__2_"
        gorn="0.1.1.5">
        <path
          stroke-width="0.01"
          d="M8.534,4.759c-0.207,0-0.375-0.168-0.375-0.375l0,0c0-0.207,0.168-0.375,0.375-0.375l0,0h3.401c0.207,0,0.375,0.168,0.375,0.375l0,0c0,0.207-0.168,0.375-0.375,0.375l0,0H8.534L8.534,4.759z"
          stroke="#000000"
        />
        <path
          stroke-width="0.01"
          d="M9.86,6.085V2.684c0-0.209,0.166-0.375,0.375-0.375l0,0c0.207,0,0.374,0.166,0.374,0.375l0,0v3.401c0,0.206-0.167,0.374-0.374,0.374l0,0C10.026,6.458,9.86,6.291,9.86,6.085L9.86,6.085z"
          stroke="#000000"
        />
      </g>
    </g>
  </g>
  <g
    id="copper1"
    gorn="0.2">
    <g
      id="copper0"
      gorn="0.2.0">
      <rect
        fill="none"
        stroke-width="1"
        stroke="#F7BD13"
        x="2.225"
        width="3.838"
        y="2.465"
        id="_x35__Square"
        height="3.838"
        gorn="0.2.0.0"
      />
      <circle
        cy="4.384"
        fill="none"
        r="1.919"
        stroke-width="1"
        stroke="#F7BD13"
        id="connector5pin"
        gorn="0.2.0.1"
        cx="4.144"
      />
      <rect
        fill="none"
        stroke-width="1"
        stroke="#F7BD13"
        x="66.098"
        width="3.838"
        y="2.527"
        id="_x34__Square"
        height="3.838"
        gorn="0.2.0.2"
      />
      <circle
        cy="4.446"
        fill="none"
        r="1.919"
        stroke-width="1"
        stroke="#F7BD13"
        id="connector4pin"
        gorn="0.2.0.3"
        cx="68.017"
      />
      <rect
        fill="none"
        stroke-width="1"
        stroke="#F7BD13"
        x="66.16"
        width="3.838"
        y="10.999"
        id="_x33__Square"
        height="3.838"
        gorn="0.2.0.4"
      />
      <circle
        cy="12.917"
        fill="none"
        r="1.919"
        stroke-width="1"
        stroke="#F7BD13"
        id="connector3pin"
        gorn="0.2.0.5"
        cx="68.079"
      />
      <rect
        fill="none"
        stroke-width="1"
        stroke="#F7BD13"
        x="66.16"
        width="3.838"
        y="31.935"
        id="_x32__Square"
        height="3.838"
        gorn="0.2.0.6"
      />
      <circle
        cy="33.854"
        fill="none"
        r="1.919"
        stroke-width="1"
        stroke="#F7BD13"
        id="connector2pin"
        gorn="0.2.0.7"
        cx="68.079"
      />
      <rect
        fill="none"
        stroke-width="1"
        stroke="#F7BD13"
        x="66.16"
        width="3.838"
        y="40.376"
        id="_x31__Square"
        height="3.838"
        gorn="0.2.0.8"
      />
      <circle
        cy="42.358"
        fill="none"
        r="1.919"
        stroke-width="1"
        stroke="#F7BD13"
        id="connector1pin"
        gorn="0.2.0.9"
        cx="68.079"
      />
      <rect
        fill="none"
        stroke-width="1"
        stroke="#F7BD13"
        x="2.225"
        width="3.838"
        y="40.376"
        id="_x30__Square"
        height="3.838"
        gorn="0.2.0.10"
      />
      <circle
        cy="42.295"
        fill="none"
        r="1.918"
        stroke-width="1"
        stroke="#F7BD13"
        id="connector0pin"
        gorn="0.2.0.11"
        cx="4.144"
      />
    </g>
  </g>
</svg>
