<?xml version='1.0' encoding='UTF-8' standalone='no'?>
<!DOCTYPE
  svg>
<!-- Generator: Adobe Illustrator 13.0.1, SVG Export Plug-In . SVG Version: 6.00 Build 14948)  -->
  <svg
  xmlns="http://www.w3.org/2000/svg"
  viewBox="0 0 80.537 46.771"
  enable-background="new 0 0 80.537 46.771"
  x="0px"
  width="1.11857in"
  y="0px"
  xml:space="preserve"
  height="0.649597in"
  id="Breadboard"
  version="1.1"
  gorn="0">
  <desc>
    <referenceFile>TP4056_Module_breadboard.svg</referenceFile>
  </desc>
  <g>
    <g>
      <path
        fill="#006091"
        d="M78.455,5.669h2.082V0H4.002v46.771h76.535v-5.669h-2.082c-1.174,0-2.126-0.952-2.126-2.126V7.795C76.329,6.621,77.281,5.669,78.455,5.669z M8.146,43.925c-0.9,0-1.63-0.729-1.63-1.629s0.729-1.631,1.63-1.631s1.63,0.73,1.63,1.631S9.046,43.925,8.146,43.925z M8.146,6.013c-0.9,0-1.63-0.729-1.63-1.63s0.729-1.63,1.63-1.63s1.63,0.729,1.63,1.63S9.046,6.013,8.146,6.013z M72.019,2.816c0.9,0,1.63,0.729,1.63,1.63s-0.729,1.63-1.63,1.63s-1.63-0.729-1.63-1.63S71.118,2.816,72.019,2.816z M72.081,43.987c-0.9,0-1.63-0.729-1.63-1.629s0.729-1.631,1.63-1.631s1.63,0.73,1.63,1.631S72.981,43.987,72.081,43.987z M72.081,35.483c-0.9,0-1.63-0.729-1.63-1.629s0.729-1.631,1.63-1.631s1.63,0.73,1.63,1.631S72.981,35.483,72.081,35.483z M72.081,14.547c-0.9,0-1.63-0.729-1.63-1.63s0.729-1.63,1.63-1.63s1.63,0.729,1.63,1.63S72.981,14.547,72.081,14.547z"
      />
    </g>
  </g>
  <g
    id="LEDs"
    gorn="0.2">
    <path
      fill="#8C8C8C"
      d="M20.504,5.258c0,0.078-0.051,0.142-0.114,0.142h-2.607c-0.062,0-0.113-0.063-0.113-0.142v-3.26c0-0.078,0.051-0.142,0.113-0.142h2.607c0.063,0,0.114,0.063,0.114,0.142V5.258z"
    />
    <path
      fill="#8C8C8C"
      d="M27.989,5.258c0,0.078-0.051,0.142-0.114,0.142h-2.607c-0.062,0-0.113-0.063-0.113-0.142v-3.26c0-0.078,0.051-0.142,0.113-0.142h2.607c0.063,0,0.114,0.063,0.114,0.142V5.258z"
    />
    <path
      fill="#8C8C8C"
      d="M33.283,5.258c0,0.078-0.051,0.142-0.114,0.142h-2.607c-0.062,0-0.113-0.063-0.113-0.142v-3.26c0-0.078,0.051-0.142,0.113-0.142h2.607c0.063,0,0.114,0.063,0.114,0.142V5.258z"
    />
    <path
      fill="#8C8C8C"
      d="M40.767,5.258c0,0.078-0.049,0.142-0.113,0.142h-2.607c-0.062,0-0.113-0.063-0.113-0.142v-3.26c0-0.078,0.051-0.142,0.113-0.142h2.607c0.064,0,0.113,0.063,0.113,0.142V5.258z"
    />
    <g>
      <g>
        <g>
          <path
            fill="#FFFFFF"
            d="M38.404,3.616c0-0.266,0.216-0.481,0.481-0.481V1.978h-6.555v1.157c0.266,0,0.481,0.216,0.481,0.481s-0.216,0.481-0.481,0.481v1.155h6.555V4.098C38.62,4.098,38.404,3.882,38.404,3.616z"
          />
        </g>
      </g>
      <polyline
        fill="#74FF9C"
        points="37.414,2.459 37.414,1.978 38.885,1.978 37.414,2.459 37.414,2.459 "
      />
      <polyline
        fill="#74FF9C"
        points="37.414,4.771 37.414,5.253 38.885,5.253 37.414,4.771 37.414,4.771 "
      />
      <rect
        fill="none"
        stroke-width="0.1"
        stroke="#EEEEEE"
        x="33.559"
        width="4.098"
        y="1.978"
        height="3.277"
      />
      <circle
        cy="3.641"
        fill="#EEEEEE"
        r="0.482"
        stroke-width="1"
        stroke="#EEEEEE"
        cx="35.608"
      />
      <rect
        fill="#EEEEEE"
        stroke-width="0.1"
        stroke="#EEEEEE"
        x="33.801"
        width="3.614"
        y="2.001"
        height="3.277"
      />
      <g>
        <circle
          cy="3.641"
          fill="#ABABAB"
          r="0.241"
          stroke-width="0.05"
          stroke="#ABABAB"
          cx="35.608"
        />
        <circle
          cy="3.579"
          fill="#EEEEEE"
          r="0.12"
          cx="35.544"
        />
      </g>
      <rect
        fill="#E5E5E5"
        x="33.801"
        width="3.612"
        y="1.978"
        height="0.481"
      />
    </g>
    <g>
      <g>
        <g>
          <path
            fill="#FFFFFF"
            d="M25.625,3.64c0-0.266,0.216-0.481,0.481-0.481V2.003h-6.555v1.155c0.266,0,0.481,0.216,0.481,0.481s-0.216,0.481-0.481,0.481v1.157h6.555V4.121C25.841,4.121,25.625,3.905,25.625,3.64z"
          />
        </g>
      </g>
      <polyline
        fill="#74FF9C"
        points="21.023,4.797 21.023,5.278 19.552,5.278 21.023,4.797 21.023,4.797 "
      />
      <polyline
        fill="#74FF9C"
        points="21.023,2.484 21.023,2.003 19.552,2.003 21.023,2.484 21.023,2.484 "
      />
      <rect
        fill="none"
        stroke-width="0.1"
        stroke="#EEEEEE"
        x="20.78"
        width="4.098"
        y="2.001"
        height="3.277"
      />
      <circle
        cy="3.615"
        fill="#EEEEEE"
        r="0.482"
        stroke-width="1"
        stroke="#EEEEEE"
        cx="22.829"
      />
      <rect
        fill="#EEEEEE"
        stroke-width="0.1"
        stroke="#EEEEEE"
        x="21.021"
        width="3.614"
        y="1.978"
        height="3.277"
      />
      <g>
        <circle
          cy="3.615"
          fill="#ABABAB"
          r="0.241"
          stroke-width="0.05"
          stroke="#ABABAB"
          cx="22.83"
        />
        <circle
          cy="3.554"
          fill="#EEEEEE"
          r="0.12"
          cx="22.767"
        />
      </g>
      <rect
        fill="#E5E5E5"
        x="21.023"
        width="3.612"
        y="4.797"
        height="0.481"
      />
    </g>
  </g>
  <g
    id="USB_2_"
    gorn="0.3">
    <rect
      fill="#8C8C8C"
      x="4.956"
      width="6.379"
      y="8.281"
      height="6.378"
    />
    <rect
      fill="#8C8C8C"
      x="4.956"
      width="6.379"
      y="32.02"
      height="6.378"
    />
    <g>
      <path
        fill="#A7A7A7"
        d="M3.509,31.062c0,0.783-0.635,1.416-1.416,1.416H1.416C0.634,32.478,0,31.845,0,31.062V15.708c0-0.783,0.634-1.418,1.416-1.418h0.677c0.781,0,1.416,0.635,1.416,1.418V31.062z"
      />
      <line
        stroke-linecap="round"
        x1="0.382"
        fill="none"
        x2="0.382"
        stroke-width="0.35"
        stroke="#E4E4E4"
        y1="15.042"
        y2="31.728"
      />
    </g>
    <g>
      <line
        stroke-linecap="round"
        x1="1.754"
        fill="none"
        x2="0.908"
        stroke-width="1"
        stroke="#A7A7A7"
        y1="33.29"
        y2="34.489"
      />
      <line
        stroke-linecap="round"
        x1="1.754"
        fill="none"
        x2="0.908"
        stroke-width="0.5"
        stroke="#C8C8C8"
        y1="33.29"
        y2="34.489"
      />
    </g>
    <g>
      <line
        stroke-linecap="round"
        x1="0.908"
        fill="none"
        x2="1.754"
        stroke-width="1"
        stroke="#A7A7A7"
        y1="12.282"
        y2="13.479"
      />
      <line
        stroke-linecap="round"
        x1="0.908"
        fill="none"
        x2="1.754"
        stroke-width="0.5"
        stroke="#C8C8C8"
        y1="12.282"
        y2="13.479"
      />
    </g>
    <line
      stroke-linecap="round"
      x1="17.881"
      fill="none"
      x2="15.33"
      stroke-width="0.75"
      stroke="#888888"
      y1="19.819"
      y2="19.819"
    />
    <line
      stroke-linecap="round"
      x1="17.881"
      fill="none"
      x2="15.33"
      stroke-width="0.75"
      stroke="#888888"
      y1="21.663"
      y2="21.663"
    />
    <line
      stroke-linecap="round"
      x1="17.881"
      fill="none"
      x2="15.33"
      stroke-width="0.75"
      stroke="#888888"
      y1="23.542"
      y2="23.542"
    />
    <line
      stroke-linecap="round"
      x1="17.881"
      fill="none"
      x2="15.33"
      stroke-width="0.75"
      stroke="#888888"
      y1="25.351"
      y2="25.351"
    />
    <line
      stroke-linecap="round"
      x1="17.881"
      fill="none"
      x2="15.33"
      stroke-width="0.75"
      stroke="#888888"
      y1="27.194"
      y2="27.194"
    />
    <circle
      cy="16.663"
      fill="#888888"
      r="1.559"
      cx="16.004"
    />
    <path
      fill="#888888"
      d="M17.562,30.229c0,0.861-0.697,1.557-1.559,1.557c-0.862,0-1.559-0.695-1.559-1.557c0-0.863,0.696-1.561,1.559-1.561C16.865,28.669,17.562,29.366,17.562,30.229z"
    />
    <rect
      stroke-linejoin="round"
      fill="#E4E4E4"
      stroke-width="0.5"
      stroke="#E4E4E4"
      x="1.754"
      width="14.201"
      y="12.97"
      height="20.83"
    />
    <line
      stroke-linecap="round"
      x1="1.754"
      fill="none"
      x2="15.955"
      stroke-width="0.5"
      stroke="#7A7A7A"
      y1="12.97"
      y2="12.97"
    />
    <line
      stroke-linecap="round"
      x1="1.754"
      fill="none"
      x2="15.955"
      stroke-width="0.5"
      stroke="#9C9C9C"
      y1="13.321"
      y2="13.321"
    />
    <line
      stroke-linecap="round"
      x1="1.754"
      fill="none"
      x2="15.955"
      stroke-width="0.5"
      stroke="#7A7A7A"
      y1="33.802"
      y2="33.802"
    />
    <line
      stroke-linecap="round"
      x1="1.754"
      fill="none"
      x2="15.955"
      stroke-width="0.5"
      stroke="#9C9C9C"
      y1="33.448"
      y2="33.448"
    />
    <linearGradient
      x1="356.626"
      x2="357.7305"
      gradientTransform="matrix(1 0 0 1 -341.4844 -45.4795)"
      gradientUnits="userSpaceOnUse"
      id="SVGID_1_"
      y1="69.0049"
      y2="69.0049">
      <stop
        offset="0"
        stop-color="#BCBCBC"
      />
      <stop
        offset="0.1064"
        stop-color="#B3B3B3"
      />
      <stop
        offset="0.2822"
        stop-color="#9A9A9A"
      />
      <stop
        offset="0.5055"
        stop-color="#717171"
      />
      <stop
        offset="0.7646"
        stop-color="#393939"
      />
      <stop
        offset="1"
        stop-color="#000000"
      />
    </linearGradient>
    <rect
      fill="url(#SVGID_1_)"
      x="15.142"
      width="1.104"
      y="21.458"
      height="4.135"
    />
    <g>
      <path
        fill="#2D2D2D"
        stroke-width="0.25"
        d="M13.645,25.591c-0.324,0-0.588,0.254-0.588,0.566v0.406c0,0.312,0.443,0.504,0.667,0.727c0.091,0.09,0.106,0.094,0.106,0.543v1.289c0,0.326,0.254,0.592,0.566,0.592h1.725v-4.117L13.645,25.591z"
        stroke="#2D2D2D"
      />
      <line
        stroke-linecap="round"
        x1="15.735"
        fill="none"
        x2="15.735"
        stroke-width="0.5"
        stroke="#A7A7A7"
        y1="25.952"
        y2="28.015"
      />
      <line
        stroke-linecap="round"
        x1="15.735"
        fill="none"
        x2="15.735"
        stroke-width="0.15"
        stroke="#E4E4E4"
        y1="25.952"
        y2="28.015"
      />
    </g>
    <g>
      <path
        fill="#2D2D2D"
        stroke-width="0.25"
        d="M13.645,21.466c-0.324,0-0.588-0.254-0.588-0.568v-0.408c0-0.312,0.443-0.502,0.667-0.725c0.091-0.092,0.106-0.094,0.106-0.545v-1.289c0-0.326,0.254-0.59,0.566-0.59h1.725v4.117L13.645,21.466z"
        stroke="#2D2D2D"
      />
      <line
        stroke-linecap="round"
        x1="15.735"
        fill="none"
        x2="15.735"
        stroke-width="0.5"
        stroke="#A7A7A7"
        y1="19.069"
        y2="21.132"
      />
      <line
        stroke-linecap="round"
        x1="15.735"
        fill="none"
        x2="15.735"
        stroke-width="0.15"
        stroke="#E4E4E4"
        y1="19.069"
        y2="21.132"
      />
    </g>
    <g>
      <path
        fill="#9E9E9E"
        d="M4.664,30.647c0,0.221-0.234,0.4-0.521,0.4l0,0c-0.287,0-0.521-0.18-0.521-0.4v-0.865c0-0.221,0.234-0.402,0.521-0.402l0,0c0.287,0,0.521,0.182,0.521,0.402V30.647z"
      />
      <line
        stroke-linecap="round"
        x1="4.664"
        fill="none"
        x2="4.664"
        stroke-width="0.2"
        stroke="#7A7A7A"
        y1="29.382"
        y2="31.048"
      />
      <line
        stroke-linecap="round"
        x1="4.309"
        fill="none"
        x2="4.309"
        stroke-width="0.2"
        stroke="#E4E4E4"
        y1="29.382"
        y2="31.048"
      />
      <line
        stroke-linecap="round"
        x1="3.621"
        fill="none"
        x2="4.664"
        stroke-width="0.2"
        stroke="#7A7A7A"
        y1="31.048"
        y2="31.048"
      />
      <line
        stroke-linecap="round"
        x1="3.621"
        fill="none"
        x2="4.664"
        stroke-width="0.2"
        stroke="#7A7A7A"
        y1="29.382"
        y2="29.382"
      />
      <g>
        <g>
          <path
            fill="#2D2D2D"
            d="M8.342,29.29H6.476c-0.344-0.3-0.787-0.494-1.08-0.494c-0.534,0-0.732,0.635-0.732,1.418s0.198,1.418,0.732,1.418c0.255,0,0.626-0.147,0.945-0.383c0.043,0.008,0.084,0.023,0.131,0.023h1.869c0.346,0,0.624-0.254,0.624-0.566v-0.85C8.966,29.542,8.688,29.29,8.342,29.29z"
          />
        </g>
        <g>
          <path
            fill="none"
            stroke-width="0.1"
            d="M8.342,29.29H6.476c-0.344-0.3-0.787-0.494-1.08-0.494c-0.534,0-0.732,0.635-0.732,1.418s0.198,1.418,0.732,1.418c0.255,0,0.626-0.147,0.945-0.383c0.043,0.008,0.084,0.023,0.131,0.023h1.869c0.346,0,0.624-0.254,0.624-0.566v-0.85C8.966,29.542,8.688,29.29,8.342,29.29z"
            stroke="#000000"
          />
        </g>
      </g>
    </g>
    <g>
      <path
        fill="#9E9E9E"
        d="M4.664,17.169c0,0.221-0.234,0.4-0.521,0.4l0,0c-0.287,0-0.521-0.18-0.521-0.4v-0.865c0-0.223,0.234-0.402,0.521-0.402l0,0c0.287,0,0.521,0.18,0.521,0.402V17.169z"
      />
      <line
        stroke-linecap="round"
        x1="4.664"
        fill="none"
        x2="4.664"
        stroke-width="0.2"
        stroke="#7A7A7A"
        y1="15.903"
        y2="17.569"
      />
      <line
        stroke-linecap="round"
        x1="4.309"
        fill="none"
        x2="4.309"
        stroke-width="0.2"
        stroke="#E4E4E4"
        y1="15.903"
        y2="17.569"
      />
      <line
        stroke-linecap="round"
        x1="3.621"
        fill="none"
        x2="4.664"
        stroke-width="0.2"
        stroke="#7A7A7A"
        y1="17.569"
        y2="17.569"
      />
      <line
        stroke-linecap="round"
        x1="3.621"
        fill="none"
        x2="4.664"
        stroke-width="0.2"
        stroke="#7A7A7A"
        y1="15.903"
        y2="15.903"
      />
      <g>
        <g>
          <path
            fill="#2D2D2D"
            d="M8.342,15.811H6.475c-0.344-0.3-0.786-0.493-1.079-0.493c-0.534,0-0.732,0.635-0.732,1.418s0.198,1.418,0.732,1.418c0.255,0,0.626-0.147,0.945-0.383c0.043,0.009,0.084,0.024,0.131,0.024h1.869c0.346,0,0.624-0.253,0.624-0.566v-0.85C8.966,16.063,8.688,15.811,8.342,15.811z"
          />
        </g>
        <g>
          <path
            fill="none"
            stroke-width="0.1"
            d="M8.342,15.811H6.475c-0.344-0.3-0.786-0.493-1.079-0.493c-0.534,0-0.732,0.635-0.732,1.418s0.198,1.418,0.732,1.418c0.255,0,0.626-0.147,0.945-0.383c0.043,0.009,0.084,0.024,0.131,0.024h1.869c0.346,0,0.624-0.253,0.624-0.566v-0.85C8.966,16.063,8.688,15.811,8.342,15.811z"
            stroke="#000000"
          />
        </g>
      </g>
    </g>
  </g>
  <g
    id="R1"
    gorn="0.4">
    <path
      fill="#8C8C8C"
      d="M39.558,10.542c0,0.066-0.053,0.12-0.119,0.12h-2.598c-0.065,0-0.119-0.054-0.119-0.12V7.381c0-0.066,0.053-0.12,0.119-0.12h2.598c0.065,0,0.119,0.054,0.119,0.12V10.542z"
    />
    <path
      fill="#8C8C8C"
      d="M34.542,10.542c0,0.066-0.053,0.12-0.119,0.12h-2.598c-0.065,0-0.119-0.054-0.119-0.12V7.381c0-0.066,0.053-0.12,0.119-0.12h2.598c0.065,0,0.119,0.054,0.119,0.12V10.542z"
    />
    <g>
      <g>
        <path
          fill="#DDDDDD"
          d="M33.779,10.022c-0.146,0-0.267-0.118-0.267-0.266v-1.59c0-0.147,0.12-0.266,0.267-0.266h3.71c0.146,0,0.265,0.118,0.265,0.266v1.59c0,0.147-0.118,0.266-0.265,0.266H33.779z"
        />
        <path
          stroke-linecap="round"
          stroke-linejoin="round"
          fill="none"
          stroke-width="0.15"
          d="M37.753,9.757c0,0.147-0.118,0.266-0.265,0.266h-3.71c-0.146,0-0.267-0.118-0.267-0.266"
          stroke="#666666"
        />
        <line
          stroke-linecap="round"
          x1="33.512"
          stroke-linejoin="round"
          fill="none"
          x2="33.512"
          stroke-width="0.15"
          stroke="#A6A6A6"
          y1="9.757"
          y2="8.167"
        />
        <line
          stroke-linecap="round"
          x1="37.753"
          stroke-linejoin="round"
          fill="none"
          x2="37.753"
          stroke-width="0.15"
          stroke="#A6A6A6"
          y1="8.167"
          y2="9.757"
        />
        <path
          stroke-linecap="round"
          stroke-linejoin="round"
          fill="none"
          stroke-width="0.15"
          d="M33.512,8.167c0-0.147,0.12-0.266,0.267-0.266h3.71c0.146,0,0.265,0.118,0.265,0.266"
          stroke="#EEEEEE"
        />
        <rect
          fill="#3D3D3D"
          x="34.456"
          width="2.337"
          y="7.901"
          height="2.121"
        />
        <line
          x1="36.792"
          fill="none"
          x2="34.456"
          stroke-width="0.15"
          stroke="#666666"
          y1="7.901"
          y2="7.901"
        />
        <line
          x1="36.792"
          fill="none"
          x2="34.456"
          stroke-width="0.15"
          stroke="#121212"
          y1="10.022"
          y2="10.022"
        />
      </g>
      <g
        transform="matrix(1 0 0 1 34.709 9.2617)">
        <g>
          <g>
            <text
              fill="#EEEEEE"
              font-size="0.88"
              font-family="OCRA">102</text>
          </g>
        </g>
      </g>
    </g>
  </g>
  <g
    id="R2"
    gorn="0.5">
    <path
      fill="#8C8C8C"
      d="M26.725,10.542c0,0.066-0.053,0.12-0.119,0.12h-2.598c-0.065,0-0.119-0.054-0.119-0.12V7.381c0-0.066,0.053-0.12,0.119-0.12h2.598c0.065,0,0.119,0.054,0.119,0.12V10.542z"
    />
    <path
      fill="#8C8C8C"
      d="M21.709,10.542c0,0.066-0.053,0.12-0.119,0.12h-2.598c-0.065,0-0.119-0.054-0.119-0.12V7.381c0-0.066,0.053-0.12,0.119-0.12h2.598c0.065,0,0.119,0.054,0.119,0.12V10.542z"
    />
    <g>
      <g>
        <path
          fill="#DDDDDD"
          d="M20.946,10.022c-0.146,0-0.267-0.118-0.267-0.266v-1.59c0-0.147,0.12-0.266,0.267-0.266h3.71c0.146,0,0.265,0.118,0.265,0.266v1.59c0,0.147-0.118,0.266-0.265,0.266H20.946z"
        />
        <path
          stroke-linecap="round"
          stroke-linejoin="round"
          fill="none"
          stroke-width="0.15"
          d="M24.92,9.757c0,0.147-0.118,0.266-0.265,0.266h-3.71c-0.146,0-0.267-0.118-0.267-0.266"
          stroke="#666666"
        />
        <line
          stroke-linecap="round"
          x1="20.679"
          stroke-linejoin="round"
          fill="none"
          x2="20.679"
          stroke-width="0.15"
          stroke="#A6A6A6"
          y1="9.757"
          y2="8.167"
        />
        <line
          stroke-linecap="round"
          x1="24.92"
          stroke-linejoin="round"
          fill="none"
          x2="24.92"
          stroke-width="0.15"
          stroke="#A6A6A6"
          y1="8.167"
          y2="9.757"
        />
        <path
          stroke-linecap="round"
          stroke-linejoin="round"
          fill="none"
          stroke-width="0.15"
          d="M20.679,8.167c0-0.147,0.12-0.266,0.267-0.266h3.71c0.146,0,0.265,0.118,0.265,0.266"
          stroke="#EEEEEE"
        />
        <rect
          fill="#3D3D3D"
          x="21.623"
          width="2.337"
          y="7.901"
          height="2.121"
        />
        <line
          x1="23.959"
          fill="none"
          x2="21.623"
          stroke-width="0.15"
          stroke="#666666"
          y1="7.901"
          y2="7.901"
        />
        <line
          x1="23.959"
          fill="none"
          x2="21.623"
          stroke-width="0.15"
          stroke="#121212"
          y1="10.022"
          y2="10.022"
        />
      </g>
      <g
        transform="matrix(1 0 0 1 21.876 9.2627)">
        <g>
          <g>
            <text
              fill="#EEEEEE"
              font-size="0.88"
              font-family="OCRA">102</text>
          </g>
        </g>
      </g>
    </g>
  </g>
  <g
    id="R3"
    gorn="0.6">
    <path
      fill="#8C8C8C"
      d="M31.898,37.421c0-0.067,0.054-0.121,0.119-0.121h2.597c0.065,0,0.119,0.054,0.119,0.121v3.16c0,0.067-0.054,0.121-0.119,0.121h-2.597c-0.065,0-0.119-0.054-0.119-0.121V37.421z"
    />
    <path
      fill="#8C8C8C"
      d="M36.914,37.421c0-0.067,0.054-0.121,0.119-0.121h2.597c0.065,0,0.119,0.054,0.119,0.121v3.16c0,0.067-0.054,0.121-0.119,0.121h-2.597c-0.065,0-0.119-0.054-0.119-0.121V37.421z"
    />
    <g>
      <g>
        <path
          fill="#DDDDDD"
          d="M33.969,40.062c-0.146,0-0.267-0.118-0.267-0.266v-1.59c0-0.147,0.12-0.266,0.267-0.266h3.71c0.146,0,0.265,0.118,0.265,0.266v1.59c0,0.147-0.118,0.266-0.265,0.266H33.969z"
        />
        <path
          stroke-linecap="round"
          stroke-linejoin="round"
          fill="none"
          stroke-width="0.15"
          d="M37.944,39.796c0,0.147-0.118,0.266-0.265,0.266h-3.71c-0.146,0-0.267-0.118-0.267-0.266"
          stroke="#666666"
        />
        <line
          stroke-linecap="round"
          x1="33.703"
          stroke-linejoin="round"
          fill="none"
          x2="33.703"
          stroke-width="0.15"
          stroke="#A6A6A6"
          y1="39.796"
          y2="38.206"
        />
        <line
          stroke-linecap="round"
          x1="37.944"
          stroke-linejoin="round"
          fill="none"
          x2="37.944"
          stroke-width="0.15"
          stroke="#A6A6A6"
          y1="38.206"
          y2="39.796"
        />
        <path
          stroke-linecap="round"
          stroke-linejoin="round"
          fill="none"
          stroke-width="0.15"
          d="M33.703,38.206c0-0.147,0.12-0.266,0.267-0.266h3.71c0.146,0,0.265,0.118,0.265,0.266"
          stroke="#EEEEEE"
        />
        <rect
          fill="#3D3D3D"
          x="34.646"
          width="2.337"
          y="37.94"
          height="2.121"
        />
        <line
          x1="36.983"
          fill="none"
          x2="34.646"
          stroke-width="0.15"
          stroke="#666666"
          y1="37.94"
          y2="37.94"
        />
        <line
          x1="36.983"
          fill="none"
          x2="34.646"
          stroke-width="0.15"
          stroke="#121212"
          y1="40.062"
          y2="40.062"
        />
      </g>
      <g
        transform="matrix(1 0 0 1 34.8994 39.3018)">
        <g>
          <g>
            <text
              fill="#EEEEEE"
              font-size="0.88"
              font-family="OCRA">122</text>
          </g>
        </g>
      </g>
    </g>
  </g>
  <g
    id="R5"
    gorn="0.7">
    <path
      fill="#8C8C8C"
      d="M52.606,4.537c0.067,0,0.121,0.054,0.121,0.119v2.597c0,0.065-0.054,0.119-0.121,0.119h-3.16c-0.067,0-0.121-0.054-0.121-0.119V4.656c0-0.065,0.054-0.119,0.121-0.119H52.606z"
    />
    <path
      fill="#8C8C8C"
      d="M52.606,9.552c0.067,0,0.121,0.054,0.121,0.119v2.597c0,0.065-0.054,0.119-0.121,0.119h-3.16c-0.067,0-0.121-0.054-0.121-0.119V9.671c0-0.065,0.054-0.119,0.121-0.119H52.606z"
    />
    <g>
      <g>
        <path
          fill="#DDDDDD"
          d="M52.087,10.316c0,0.146-0.118,0.266-0.266,0.266h-1.59c-0.147,0-0.266-0.119-0.266-0.266V6.605c0-0.146,0.118-0.264,0.266-0.264h1.59c0.147,0,0.266,0.117,0.266,0.264V10.316z"
        />
        <path
          stroke-linecap="round"
          stroke-linejoin="round"
          fill="none"
          stroke-width="0.15"
          d="M51.821,6.342c0.147,0,0.266,0.117,0.266,0.264v3.711c0,0.146-0.118,0.266-0.266,0.266"
          stroke="#666666"
        />
        <line
          stroke-linecap="round"
          x1="51.821"
          stroke-linejoin="round"
          fill="none"
          x2="50.231"
          stroke-width="0.15"
          stroke="#A6A6A6"
          y1="10.582"
          y2="10.582"
        />
        <line
          stroke-linecap="round"
          x1="50.231"
          stroke-linejoin="round"
          fill="none"
          x2="51.821"
          stroke-width="0.15"
          stroke="#A6A6A6"
          y1="6.342"
          y2="6.342"
        />
        <path
          stroke-linecap="round"
          stroke-linejoin="round"
          fill="none"
          stroke-width="0.15"
          d="M50.231,10.582c-0.147,0-0.266-0.119-0.266-0.266V6.605c0-0.146,0.118-0.264,0.266-0.264"
          stroke="#EEEEEE"
        />
        <rect
          fill="#3D3D3D"
          x="49.966"
          width="2.121"
          y="7.303"
          height="2.336"
        />
        <line
          x1="49.966"
          fill="none"
          x2="49.966"
          stroke-width="0.15"
          stroke="#666666"
          y1="7.303"
          y2="9.639"
        />
        <line
          x1="52.087"
          fill="none"
          x2="52.087"
          stroke-width="0.15"
          stroke="#121212"
          y1="7.303"
          y2="9.639"
        />
      </g>
      <g
        transform="matrix(0 1 -1 0 50.7266 7.5376)">
        <g>
          <g>
            <text
              fill="#EEEEEE"
              font-size="0.88"
              font-family="OCRA">101</text>
          </g>
        </g>
      </g>
    </g>
  </g>
  <g
    id="R6"
    gorn="0.8">
    <path
      fill="#8C8C8C"
      d="M52.606,29.87c0.067,0,0.121,0.054,0.121,0.118v2.598c0,0.064-0.054,0.118-0.121,0.118h-3.16c-0.067,0-0.121-0.054-0.121-0.118v-2.598c0-0.064,0.054-0.118,0.121-0.118H52.606z"
    />
    <path
      fill="#8C8C8C"
      d="M52.606,34.886c0.067,0,0.121,0.054,0.121,0.118v2.598c0,0.064-0.054,0.118-0.121,0.118h-3.16c-0.067,0-0.121-0.054-0.121-0.118v-2.598c0-0.064,0.054-0.118,0.121-0.118H52.606z"
    />
    <g>
      <g>
        <path
          fill="#DDDDDD"
          d="M52.087,35.649c0,0.146-0.118,0.266-0.266,0.266h-1.59c-0.147,0-0.266-0.119-0.266-0.266v-3.711c0-0.146,0.118-0.264,0.266-0.264h1.59c0.147,0,0.266,0.117,0.266,0.264V35.649z"
        />
        <path
          stroke-linecap="round"
          stroke-linejoin="round"
          fill="none"
          stroke-width="0.15"
          d="M51.821,31.675c0.147,0,0.266,0.117,0.266,0.264v3.711c0,0.146-0.118,0.266-0.266,0.266"
          stroke="#666666"
        />
        <line
          stroke-linecap="round"
          x1="51.821"
          stroke-linejoin="round"
          fill="none"
          x2="50.231"
          stroke-width="0.15"
          stroke="#A6A6A6"
          y1="35.915"
          y2="35.915"
        />
        <line
          stroke-linecap="round"
          x1="50.231"
          stroke-linejoin="round"
          fill="none"
          x2="51.821"
          stroke-width="0.15"
          stroke="#A6A6A6"
          y1="31.675"
          y2="31.675"
        />
        <path
          stroke-linecap="round"
          stroke-linejoin="round"
          fill="none"
          stroke-width="0.15"
          d="M50.231,35.915c-0.147,0-0.266-0.119-0.266-0.266v-3.711c0-0.146,0.118-0.264,0.266-0.264"
          stroke="#EEEEEE"
        />
        <rect
          fill="#3D3D3D"
          x="49.966"
          width="2.121"
          y="32.636"
          height="2.336"
        />
        <line
          x1="49.966"
          fill="none"
          x2="49.966"
          stroke-width="0.15"
          stroke="#666666"
          y1="32.636"
          y2="34.972"
        />
        <line
          x1="52.087"
          fill="none"
          x2="52.087"
          stroke-width="0.15"
          stroke="#121212"
          y1="32.636"
          y2="34.972"
        />
      </g>
      <g
        transform="matrix(0 1 -1 0 50.7266 32.8721)">
        <g>
          <g>
            <text
              fill="#EEEEEE"
              font-size="0.88"
              font-family="OCRA">102</text>
          </g>
        </g>
      </g>
    </g>
  </g>
  <g
    id="C1"
    gorn="0.9">
    <path
      fill="#8C8C8C"
      d="M46.183,15.162c0.067,0,0.121,0.054,0.121,0.119v2.597c0,0.065-0.054,0.119-0.121,0.119h-3.16c-0.067,0-0.121-0.054-0.121-0.119v-2.597c0-0.065,0.054-0.119,0.121-0.119H46.183z"
    />
    <path
      fill="#8C8C8C"
      d="M46.183,20.177c0.067,0,0.121,0.054,0.121,0.119v2.597c0,0.065-0.054,0.119-0.121,0.119h-3.16c-0.067,0-0.121-0.054-0.121-0.119v-2.597c0-0.065,0.054-0.119,0.121-0.119H46.183z"
    />
    <g>
      <path
        fill="#DDDDDD"
        d="M45.662,20.941c0,0.146-0.118,0.266-0.266,0.266h-1.59c-0.146,0-0.265-0.119-0.265-0.266V17.23c0-0.146,0.118-0.264,0.265-0.264h1.59c0.147,0,0.266,0.118,0.266,0.264V20.941z"
      />
      <path
        stroke-linecap="round"
        stroke-linejoin="round"
        fill="none"
        stroke-width="0.15"
        d="M45.396,16.967c0.147,0,0.266,0.118,0.266,0.264v3.711c0,0.146-0.118,0.266-0.266,0.266"
        stroke="#828282"
      />
      <line
        stroke-linecap="round"
        x1="45.396"
        stroke-linejoin="round"
        fill="none"
        x2="43.807"
        stroke-width="0.15"
        stroke="#A6A6A6"
        y1="21.207"
        y2="21.207"
      />
      <line
        stroke-linecap="round"
        x1="43.807"
        stroke-linejoin="round"
        fill="none"
        x2="45.396"
        stroke-width="0.15"
        stroke="#A6A6A6"
        y1="16.967"
        y2="16.967"
      />
      <path
        stroke-linecap="round"
        stroke-linejoin="round"
        fill="none"
        stroke-width="0.15"
        d="M43.807,21.207c-0.146,0-0.265-0.119-0.265-0.266V17.23c0-0.146,0.118-0.264,0.265-0.264"
        stroke="#EEEEEE"
      />
      <rect
        fill="#956132"
        x="43.542"
        width="2.12"
        y="17.927"
        height="2.338"
      />
      <line
        x1="43.542"
        fill="none"
        x2="43.542"
        stroke-width="0.15"
        stroke="#B57441"
        y1="17.927"
        y2="20.265"
      />
      <line
        x1="45.662"
        fill="none"
        x2="45.662"
        stroke-width="0.15"
        stroke="#704525"
        y1="17.927"
        y2="20.265"
      />
    </g>
  </g>
  <g
    id="C2"
    gorn="0.10">
    <path
      fill="#8C8C8C"
      d="M52.606,15.177c0.067,0,0.121,0.054,0.121,0.119v2.597c0,0.065-0.054,0.119-0.121,0.119h-3.16c-0.067,0-0.121-0.054-0.121-0.119v-2.597c0-0.065,0.054-0.119,0.121-0.119H52.606z"
    />
    <path
      fill="#8C8C8C"
      d="M52.606,20.193c0.067,0,0.121,0.054,0.121,0.119v2.597c0,0.065-0.054,0.119-0.121,0.119h-3.16c-0.067,0-0.121-0.054-0.121-0.119v-2.597c0-0.065,0.054-0.119,0.121-0.119H52.606z"
    />
    <g>
      <path
        fill="#DDDDDD"
        d="M52.563,21.328c0,0.176-0.172,0.319-0.386,0.319h-2.305c-0.213,0-0.384-0.144-0.384-0.319v-4.453c0-0.175,0.171-0.316,0.384-0.316h2.305c0.214,0,0.386,0.142,0.386,0.316V21.328z"
      />
      <path
        stroke-linecap="round"
        stroke-linejoin="round"
        fill="none"
        stroke-width="0.15"
        d="M52.178,16.558c0.214,0,0.386,0.142,0.386,0.316v4.453c0,0.176-0.172,0.319-0.386,0.319"
        stroke="#828282"
      />
      <line
        stroke-linecap="round"
        x1="52.178"
        stroke-linejoin="round"
        fill="none"
        x2="49.873"
        stroke-width="0.15"
        stroke="#A6A6A6"
        y1="21.647"
        y2="21.647"
      />
      <line
        stroke-linecap="round"
        x1="49.873"
        stroke-linejoin="round"
        fill="none"
        x2="52.178"
        stroke-width="0.15"
        stroke="#A6A6A6"
        y1="16.558"
        y2="16.558"
      />
      <path
        stroke-linecap="round"
        stroke-linejoin="round"
        fill="none"
        stroke-width="0.15"
        d="M49.873,21.647c-0.213,0-0.384-0.144-0.384-0.319v-4.453c0-0.175,0.171-0.316,0.384-0.316"
        stroke="#EEEEEE"
      />
      <rect
        fill="#956132"
        x="49.489"
        width="3.074"
        y="17.71"
        height="2.806"
      />
      <line
        x1="49.489"
        fill="none"
        x2="49.489"
        stroke-width="0.15"
        stroke="#B57441"
        y1="17.71"
        y2="20.516"
      />
      <line
        x1="52.563"
        fill="none"
        x2="52.563"
        stroke-width="0.15"
        stroke="#704525"
        y1="17.71"
        y2="20.516"
      />
    </g>
  </g>
  <g
    id="C3"
    gorn="0.11">
    <path
      fill="#8C8C8C"
      d="M18.992,37.421c0-0.067,0.054-0.121,0.119-0.121h2.597c0.065,0,0.119,0.054,0.119,0.121v3.16c0,0.067-0.054,0.121-0.119,0.121h-2.597c-0.065,0-0.119-0.054-0.119-0.121V37.421z"
    />
    <path
      fill="#8C8C8C"
      d="M24.007,37.421c0-0.067,0.054-0.121,0.119-0.121h2.597c0.065,0,0.119,0.054,0.119,0.121v3.16c0,0.067-0.054,0.121-0.119,0.121h-2.597c-0.065,0-0.119-0.054-0.119-0.121V37.421z"
    />
    <g>
      <path
        fill="#DDDDDD"
        d="M20.692,40.538c-0.176,0-0.319-0.172-0.319-0.386v-2.305c0-0.213,0.144-0.384,0.319-0.384h4.453c0.175,0,0.316,0.171,0.316,0.384v2.305c0,0.214-0.142,0.386-0.316,0.386H20.692z"
      />
      <path
        stroke-linecap="round"
        stroke-linejoin="round"
        fill="none"
        stroke-width="0.15"
        d="M25.461,40.152c0,0.214-0.142,0.386-0.316,0.386h-4.453c-0.176,0-0.319-0.172-0.319-0.386"
        stroke="#828282"
      />
      <line
        stroke-linecap="round"
        x1="20.373"
        stroke-linejoin="round"
        fill="none"
        x2="20.373"
        stroke-width="0.15"
        stroke="#A6A6A6"
        y1="40.152"
        y2="37.848"
      />
      <line
        stroke-linecap="round"
        x1="25.461"
        stroke-linejoin="round"
        fill="none"
        x2="25.461"
        stroke-width="0.15"
        stroke="#A6A6A6"
        y1="37.848"
        y2="40.152"
      />
      <path
        stroke-linecap="round"
        stroke-linejoin="round"
        fill="none"
        stroke-width="0.15"
        d="M20.373,37.848c0-0.213,0.144-0.384,0.319-0.384h4.453c0.175,0,0.316,0.171,0.316,0.384"
        stroke="#EEEEEE"
      />
      <rect
        fill="#956132"
        x="21.503"
        width="2.806"
        y="37.464"
        height="3.074"
      />
      <line
        x1="24.309"
        fill="none"
        x2="21.503"
        stroke-width="0.15"
        stroke="#B57441"
        y1="37.464"
        y2="37.464"
      />
      <line
        x1="24.309"
        fill="none"
        x2="21.503"
        stroke-width="0.15"
        stroke="#704525"
        y1="40.538"
        y2="40.538"
      />
    </g>
  </g>
  <g
    id="Battery_Protection_IC"
    gorn="0.12">
    <g
      id="IC"
      gorn="0.12.0">
      <rect
        fill="#8C8C8C"
        x="57.773"
        width="1.982"
        y="16.124"
        height="1.984"
      />
      <rect
        fill="#8C8C8C"
        x="60.461"
        width="1.984"
        y="16.124"
        height="1.984"
      />
      <rect
        fill="#8C8C8C"
        x="63.17"
        width="1.984"
        y="16.114"
        height="1.984"
      />
      <rect
        fill="#8C8C8C"
        x="57.773"
        width="1.982"
        y="7.775"
        height="1.984"
      />
      <rect
        fill="#8C8C8C"
        x="60.472"
        width="1.984"
        y="7.775"
        height="1.984"
      />
      <rect
        fill="#8C8C8C"
        x="63.17"
        width="1.984"
        y="7.775"
        height="1.984"
      />
      <g>
        <rect
          fill="#A9A9A9"
          stroke-width="0.05"
          stroke="#000000"
          x="58.199"
          width="1.133"
          y="14.907"
          height="2.269"
        />
        <rect
          fill="#808080"
          x="58.199"
          width="1.133"
          y="15.497"
          height="0.566"
        />
      </g>
      <g>
        <rect
          fill="#A9A9A9"
          stroke-width="0.05"
          stroke="#000000"
          x="60.887"
          width="1.133"
          y="14.907"
          height="2.269"
        />
        <rect
          fill="#808080"
          x="60.887"
          width="1.133"
          y="15.496"
          height="0.566"
        />
      </g>
      <g>
        <rect
          fill="#A9A9A9"
          stroke-width="0.05"
          stroke="#000000"
          x="63.594"
          width="1.135"
          y="14.907"
          height="2.269"
        />
        <rect
          fill="#808080"
          x="63.594"
          width="1.135"
          y="15.496"
          height="0.566"
        />
      </g>
      <g>
        <rect
          fill="#A9A9A9"
          stroke-width="0.05"
          stroke="#000000"
          x="58.199"
          width="1.133"
          y="8.681"
          height="2.268"
        />
        <rect
          fill="#808080"
          x="58.199"
          width="1.133"
          y="9.792"
          height="0.566"
        />
      </g>
      <g>
        <rect
          fill="#A9A9A9"
          stroke-width="0.05"
          stroke="#000000"
          x="60.896"
          width="1.135"
          y="8.672"
          height="2.268"
        />
        <rect
          fill="#808080"
          x="60.896"
          width="1.135"
          y="9.783"
          height="0.566"
        />
      </g>
      <g>
        <rect
          fill="#A9A9A9"
          stroke-width="0.05"
          stroke="#000000"
          x="63.594"
          width="1.135"
          y="8.672"
          height="2.268"
        />
        <rect
          fill="#808080"
          x="63.594"
          width="1.135"
          y="9.783"
          height="0.566"
        />
      </g>
      <path
        fill="#3D3D3D"
        stroke-width="0.1"
        d="M58.061,14.908c-0.078,0-0.141-0.063-0.141-0.142v-3.686c0-0.078,0.062-0.142,0.141-0.142h6.805c0.078,0,0.141,0.063,0.141,0.142v3.686c0,0.078-0.062,0.142-0.141,0.142H58.061z"
        stroke="#000000"
      />
      <path
        stroke-linecap="round"
        fill="none"
        stroke-width="0.15"
        d="M65.006,14.767c0,0.078-0.062,0.142-0.141,0.142h-6.805c-0.078,0-0.141-0.063-0.141-0.142"
        stroke="#000000"
      />
      <line
        stroke-linecap="round"
        x1="57.92"
        fill="none"
        x2="57.92"
        stroke-width="0.15"
        stroke="#3D3D3D"
        y1="14.767"
        y2="11.081"
      />
      <line
        stroke-linecap="round"
        x1="65.006"
        fill="none"
        x2="65.006"
        stroke-width="0.15"
        stroke="#3D3D3D"
        y1="11.081"
        y2="14.767"
      />
      <path
        stroke-linecap="round"
        fill="none"
        stroke-width="0.15"
        d="M57.92,11.081c0-0.078,0.062-0.142,0.141-0.142h6.805c0.078,0,0.141,0.063,0.141,0.142"
        stroke="#545454"
      />
    </g>
    <g>
      <path
        d="M58.682,12.145c0.105-0.016,0.231-0.028,0.369-0.028c0.25,0,0.428,0.058,0.546,0.168c0.12,0.11,0.189,0.266,0.189,0.484c0,0.22-0.067,0.4-0.193,0.523c-0.126,0.126-0.334,0.194-0.596,0.194c-0.124,0-0.228-0.006-0.315-0.016V12.145z M58.855,13.336c0.044,0.008,0.107,0.01,0.176,0.01c0.371,0,0.573-0.208,0.573-0.572c0.002-0.318-0.178-0.52-0.546-0.52c-0.09,0-0.157,0.008-0.203,0.018V13.336z"
      />
      <path
        d="M60.233,13.474l-0.342-1.347h0.184l0.16,0.682c0.04,0.168,0.076,0.336,0.1,0.466h0.004c0.022-0.134,0.064-0.294,0.11-0.468l0.18-0.68h0.182l0.164,0.684c0.038,0.16,0.074,0.32,0.094,0.462h0.004c0.028-0.148,0.066-0.298,0.108-0.466l0.178-0.68h0.178l-0.382,1.347h-0.182l-0.17-0.702c-0.042-0.172-0.07-0.304-0.088-0.44h-0.004c-0.024,0.134-0.054,0.266-0.104,0.44l-0.191,0.702H60.233z"
      />
      <path
        d="M62.507,12.811c0,0.442-0.163,0.686-0.451,0.686c-0.254,0-0.426-0.238-0.43-0.667c0-0.436,0.188-0.676,0.451-0.676C62.352,12.153,62.507,12.396,62.507,12.811z M61.802,12.831c0,0.338,0.104,0.53,0.264,0.53c0.18,0,0.266-0.21,0.266-0.542c0-0.32-0.082-0.53-0.264-0.53C61.913,12.289,61.802,12.477,61.802,12.831z"
      />
      <path
        d="M63.052,12.339h-0.004l-0.226,0.122l-0.034-0.134l0.284-0.152h0.149v1.299h-0.17V12.339z"
      />
      <path
        d="M64.343,13.437c-0.049,0.018-0.146,0.046-0.26,0.046c-0.127,0-0.232-0.033-0.314-0.111c-0.073-0.07-0.118-0.183-0.118-0.314c0.001-0.251,0.174-0.436,0.457-0.436c0.098,0,0.174,0.021,0.21,0.039l-0.026,0.089c-0.045-0.02-0.102-0.036-0.187-0.036c-0.205,0-0.339,0.127-0.339,0.339c0,0.214,0.129,0.34,0.325,0.34c0.071,0,0.12-0.01,0.146-0.022v-0.251h-0.172v-0.087h0.278V13.437z"
      />
    </g>
  </g>
  <g
    id="TP4056"
    gorn="0.13">
    <path
      fill="#3D3D3D"
      d="M37.433,27.986c0,0.391-0.317,0.708-0.709,0.708H23.968c-0.391,0-0.708-0.317-0.708-0.708v-9.355c0-0.391,0.317-0.708,0.708-0.708h12.756c0.392,0,0.709,0.317,0.709,0.708V27.986z"
    />
    <path
      fill="#4D4D4D"
      stroke-width="0.25"
      d="M24.19,27.616c0,0.076,0.061,0.141,0.136,0.141h12.04c0.076,0,0.137-0.064,0.137-0.141v-8.614c0-0.079-0.061-0.142-0.137-0.142h-12.04c-0.075,0-0.136,0.063-0.136,0.142V27.616z"
      stroke="#4D4D4D"
    />
    <path
      fill="none"
      stroke-width="0.25"
      d="M24.19,27.616c0,0.076,0.061,0.141,0.136,0.141h12.04c0.076,0,0.137-0.064,0.137-0.141"
      stroke="#333333"
    />
    <line
      stroke-linecap="round"
      x1="36.502"
      fill="none"
      x2="36.502"
      stroke-width="0.25"
      stroke="#4D4D4D"
      y1="27.616"
      y2="19.002"
    />
    <line
      stroke-linecap="round"
      x1="24.19"
      fill="none"
      x2="24.19"
      stroke-width="0.25"
      stroke="#666666"
      y1="19.002"
      y2="27.616"
    />
    <path
      stroke-linecap="round"
      fill="none"
      stroke-width="0.25"
      d="M36.502,19.002c0-0.079-0.061-0.142-0.137-0.142h-12.04c-0.075,0-0.136,0.063-0.136,0.142"
      stroke="#808080"
    />
    <circle
      cy="26.216"
      fill="#1A1A1A"
      r="0.729"
      stroke-width="0.1"
      stroke="#333333"
      cx="25.315"
    />
    <circle
      cy="26.507"
      fill="#666666"
      r="0.142"
      cx="25.482"
    />
    <g>
      <path
        fill="#666666"
        d="M25.783,20.735h-0.599v-0.128v-0.129h1.436v0.127v0.13h-0.599v1.896h-0.119h-0.119V20.735z"
      />
      <path
        fill="#666666"
        d="M28.326,21.835c-0.021,0.272-0.099,0.482-0.232,0.631c-0.133,0.147-0.312,0.222-0.537,0.222c-0.243,0-0.437-0.103-0.58-0.309c-0.144-0.205-0.215-0.482-0.215-0.831c0-0.337,0.076-0.608,0.229-0.815c0.152-0.206,0.353-0.31,0.601-0.31c0.201,0,0.364,0.062,0.489,0.183c0.125,0.123,0.202,0.296,0.23,0.519h-0.233c-0.018-0.141-0.069-0.25-0.153-0.327c-0.084-0.076-0.195-0.114-0.333-0.114c-0.18,0-0.322,0.078-0.426,0.236c-0.105,0.158-0.157,0.375-0.157,0.648c0,0.277,0.05,0.49,0.151,0.639c0.101,0.148,0.245,0.223,0.432,0.223c0.146,0,0.262-0.052,0.349-0.155c0.087-0.103,0.139-0.249,0.153-0.438H28.326z"
      />
      <path
        fill="#666666"
        d="M28.489,22.126v-0.127v-0.127l0.788-1.345h0.097h0.097v1.376h0.246v0.223H29.47v0.506h-0.218v-0.506H28.489z M29.252,21.903v-0.986l-0.544,0.954l-0.019,0.032H29.252z"
      />
      <path
        fill="#666666"
        d="M30.042,22.41c-0.104-0.186-0.155-0.448-0.155-0.789c0-0.35,0.052-0.619,0.155-0.81c0.104-0.189,0.25-0.284,0.439-0.284c0.19,0,0.337,0.095,0.44,0.284c0.103,0.19,0.155,0.46,0.155,0.81c0,0.341-0.052,0.604-0.155,0.789c-0.103,0.185-0.25,0.277-0.44,0.277C30.292,22.688,30.145,22.595,30.042,22.41z M30.753,22.238c0.062-0.144,0.094-0.351,0.094-0.62c0.001-0.288-0.029-0.503-0.09-0.646c-0.061-0.142-0.153-0.213-0.276-0.213c-0.122,0-0.213,0.071-0.274,0.213c-0.061,0.143-0.091,0.357-0.092,0.646c0,0.27,0.032,0.477,0.095,0.62c0.063,0.145,0.154,0.216,0.271,0.216C30.599,22.454,30.689,22.383,30.753,22.238z"
      />
      <path
        fill="#666666"
        d="M32.428,21.949c0,0.226-0.054,0.405-0.16,0.538c-0.107,0.134-0.251,0.2-0.433,0.2c-0.175,0-0.314-0.05-0.417-0.148c-0.104-0.1-0.162-0.24-0.175-0.423h0.226c0.009,0.108,0.044,0.192,0.108,0.251c0.062,0.06,0.148,0.089,0.257,0.089s0.196-0.043,0.265-0.131c0.067-0.086,0.102-0.199,0.102-0.336c0-0.143-0.034-0.259-0.102-0.349c-0.068-0.089-0.156-0.134-0.265-0.134c-0.065,0-0.13,0.02-0.193,0.06c-0.063,0.039-0.11,0.089-0.141,0.148l-0.186-0.012l0.135-1.134h0.892v0.26h-0.733l-0.069,0.561c0.1-0.076,0.21-0.114,0.331-0.114c0.159,0,0.292,0.064,0.399,0.193C32.375,21.597,32.428,21.757,32.428,21.949z"
      />
      <path
        fill="#666666"
        d="M33.264,20.527c0.148,0,0.267,0.049,0.356,0.146c0.089,0.099,0.14,0.237,0.154,0.417h-0.217c-0.009-0.105-0.039-0.187-0.089-0.244s-0.119-0.087-0.204-0.087c-0.14,0-0.246,0.077-0.318,0.229c-0.063,0.137-0.098,0.326-0.104,0.568l0.012-0.019c0.104-0.162,0.24-0.243,0.41-0.243c0.156,0,0.286,0.063,0.39,0.189c0.104,0.127,0.155,0.285,0.155,0.475c0,0.207-0.052,0.381-0.155,0.52s-0.233,0.208-0.39,0.208c-0.209,0-0.368-0.087-0.476-0.262c-0.108-0.174-0.163-0.429-0.163-0.764c0-0.371,0.055-0.653,0.164-0.847C32.898,20.623,33.056,20.527,33.264,20.527z M32.876,21.972c0,0.143,0.034,0.259,0.104,0.348c0.068,0.091,0.158,0.135,0.269,0.135c0.099,0,0.179-0.044,0.24-0.135c0.062-0.089,0.092-0.205,0.092-0.348c0-0.131-0.032-0.238-0.094-0.32c-0.063-0.082-0.145-0.123-0.244-0.123c-0.108,0-0.197,0.041-0.265,0.123C32.91,21.733,32.876,21.841,32.876,21.972z"
      />
      <path
        fill="#666666"
        d="M34.6,20.479h0.136h0.136l0.636,2.153h-0.134h-0.135l-0.171-0.627H34.38l-0.172,0.627h-0.137h-0.136L34.6,20.479z M34.454,21.745h0.547l-0.27-0.985L34.454,21.745z"
      />
    </g>
    <g>
      <path
        fill="#666666"
        d="M26.823,24.314c-0.021,0.272-0.099,0.482-0.232,0.631c-0.133,0.147-0.312,0.222-0.537,0.222c-0.243,0-0.437-0.103-0.58-0.309c-0.144-0.205-0.215-0.482-0.215-0.831c0-0.337,0.076-0.608,0.229-0.815c0.152-0.206,0.353-0.31,0.601-0.31c0.201,0,0.364,0.061,0.489,0.184c0.125,0.122,0.202,0.295,0.23,0.518h-0.233c-0.018-0.141-0.069-0.25-0.153-0.327c-0.084-0.076-0.195-0.114-0.333-0.114c-0.18,0-0.322,0.078-0.426,0.236c-0.105,0.158-0.157,0.375-0.157,0.648c0,0.277,0.05,0.49,0.151,0.639c0.101,0.148,0.245,0.223,0.432,0.223c0.146,0,0.262-0.052,0.349-0.155c0.087-0.103,0.139-0.249,0.153-0.438H26.823z"
      />
      <path
        fill="#666666"
        d="M27.112,25.111v-2.153h0.119h0.119v1.897h0.896v0.127v0.129H27.112z"
      />
      <path
        fill="#666666"
        d="M29.025,23.006c0.148,0,0.267,0.05,0.356,0.147c0.089,0.099,0.14,0.237,0.154,0.417h-0.217c-0.009-0.105-0.039-0.187-0.089-0.244s-0.119-0.087-0.204-0.087c-0.14,0-0.246,0.077-0.318,0.229c-0.063,0.137-0.098,0.326-0.104,0.568l0.012-0.019c0.104-0.162,0.24-0.243,0.41-0.243c0.156,0,0.286,0.063,0.39,0.189c0.104,0.127,0.155,0.285,0.155,0.475c0,0.207-0.052,0.381-0.155,0.52s-0.233,0.208-0.39,0.208c-0.209,0-0.368-0.087-0.476-0.262c-0.108-0.174-0.163-0.429-0.163-0.764c0-0.371,0.055-0.653,0.164-0.847C28.659,23.103,28.817,23.006,29.025,23.006z M28.637,24.451c0,0.143,0.034,0.259,0.104,0.348c0.068,0.091,0.158,0.135,0.269,0.135c0.099,0,0.179-0.044,0.24-0.135c0.062-0.089,0.092-0.205,0.092-0.348c0-0.131-0.032-0.238-0.094-0.32c-0.063-0.082-0.145-0.123-0.244-0.123c-0.108,0-0.197,0.041-0.265,0.123C28.67,24.213,28.637,24.32,28.637,24.451z"
      />
      <path
        fill="#666666"
        d="M30.393,23.006c0.148,0,0.267,0.05,0.356,0.147c0.089,0.099,0.14,0.237,0.154,0.417h-0.217c-0.009-0.105-0.039-0.187-0.089-0.244s-0.119-0.087-0.204-0.087c-0.14,0-0.246,0.077-0.318,0.229c-0.063,0.137-0.098,0.326-0.104,0.568l0.012-0.019c0.104-0.162,0.24-0.243,0.41-0.243c0.156,0,0.286,0.063,0.39,0.189c0.104,0.127,0.155,0.285,0.155,0.475c0,0.207-0.052,0.381-0.155,0.52s-0.233,0.208-0.39,0.208c-0.209,0-0.368-0.087-0.476-0.262c-0.108-0.174-0.163-0.429-0.163-0.764c0-0.371,0.055-0.653,0.164-0.847C30.027,23.103,30.185,23.006,30.393,23.006z M30.005,24.451c0,0.143,0.034,0.259,0.104,0.348c0.068,0.091,0.158,0.135,0.269,0.135c0.099,0,0.179-0.044,0.24-0.135c0.062-0.089,0.092-0.205,0.092-0.348c0-0.131-0.032-0.238-0.094-0.32c-0.063-0.082-0.145-0.123-0.244-0.123c-0.108,0-0.197,0.041-0.265,0.123C30.039,24.213,30.005,24.32,30.005,24.451z"
      />
      <path
        fill="#666666"
        d="M32.293,24.429c0,0.226-0.054,0.405-0.16,0.538c-0.107,0.134-0.251,0.2-0.433,0.2c-0.175,0-0.314-0.05-0.417-0.148c-0.104-0.1-0.162-0.24-0.175-0.423h0.226c0.009,0.108,0.044,0.192,0.108,0.251c0.062,0.06,0.148,0.089,0.257,0.089s0.196-0.043,0.265-0.131c0.067-0.086,0.102-0.199,0.102-0.336c0-0.143-0.034-0.259-0.102-0.349c-0.068-0.089-0.156-0.134-0.265-0.134c-0.065,0-0.13,0.02-0.193,0.06c-0.063,0.039-0.11,0.089-0.141,0.148l-0.186-0.012l0.135-1.134h0.892v0.26h-0.733l-0.069,0.561c0.1-0.076,0.21-0.114,0.331-0.114c0.159,0,0.292,0.064,0.399,0.193C32.24,24.076,32.293,24.236,32.293,24.429z"
      />
      <path
        fill="#666666"
        d="M32.587,22.958h0.119h0.119v0.884h0.926v-0.884h0.119h0.119v2.153h-0.119H33.75v-1.011h-0.926v1.011h-0.119h-0.119V22.958z"
      />
      <path
        fill="#666666"
        d="M34.833,23.609h-0.41v-0.203c0.151-0.005,0.26-0.035,0.325-0.091c0.066-0.057,0.115-0.159,0.145-0.31h0.168v2.105h-0.114h-0.114V23.609z"
      />
    </g>
    <rect
      fill="#8C8C8C"
      x="34.985"
      width="1.559"
      y="29.911"
      height="1.984"
    />
    <rect
      fill="#8C8C8C"
      x="34.985"
      width="1.559"
      y="14.75"
      height="1.984"
    />
    <g>
      <rect
        fill="#A9A9A9"
        stroke-width="0.05"
        stroke="#000000"
        x="35.199"
        width="1.133"
        y="28.694"
        height="2.269"
      />
      <rect
        fill="#808080"
        x="35.199"
        width="1.133"
        y="29.284"
        height="0.566"
      />
    </g>
    <rect
      fill="#8C8C8C"
      x="31.373"
      width="1.559"
      y="29.911"
      height="1.984"
    />
    <g>
      <rect
        fill="#A9A9A9"
        stroke-width="0.05"
        stroke="#000000"
        x="31.587"
        width="1.133"
        y="28.694"
        height="2.269"
      />
      <rect
        fill="#808080"
        x="31.587"
        width="1.133"
        y="29.284"
        height="0.566"
      />
    </g>
    <rect
      fill="#8C8C8C"
      x="27.761"
      width="1.559"
      y="29.911"
      height="1.984"
    />
    <g>
      <rect
        fill="#A9A9A9"
        stroke-width="0.05"
        stroke="#000000"
        x="27.975"
        width="1.133"
        y="28.694"
        height="2.269"
      />
      <rect
        fill="#808080"
        x="27.975"
        width="1.133"
        y="29.284"
        height="0.566"
      />
    </g>
    <rect
      fill="#8C8C8C"
      x="24.148"
      width="1.559"
      y="29.911"
      height="1.984"
    />
    <g>
      <rect
        fill="#A9A9A9"
        stroke-width="0.05"
        stroke="#000000"
        x="24.362"
        width="1.133"
        y="28.694"
        height="2.269"
      />
      <rect
        fill="#808080"
        x="24.362"
        width="1.133"
        y="29.284"
        height="0.566"
      />
    </g>
    <g>
      <rect
        fill="#A9A9A9"
        stroke-width="0.05"
        stroke="#000000"
        x="35.199"
        width="1.133"
        y="15.655"
        height="2.268"
      />
      <rect
        fill="#808080"
        x="35.199"
        width="1.133"
        y="16.767"
        height="0.566"
      />
    </g>
    <rect
      fill="#8C8C8C"
      x="31.373"
      width="1.559"
      y="14.75"
      height="1.984"
    />
    <g>
      <rect
        fill="#A9A9A9"
        stroke-width="0.05"
        stroke="#000000"
        x="31.587"
        width="1.133"
        y="15.655"
        height="2.268"
      />
      <rect
        fill="#808080"
        x="31.587"
        width="1.133"
        y="16.767"
        height="0.566"
      />
    </g>
    <rect
      fill="#8C8C8C"
      x="27.761"
      width="1.559"
      y="14.75"
      height="1.984"
    />
    <g>
      <rect
        fill="#A9A9A9"
        stroke-width="0.05"
        stroke="#000000"
        x="27.975"
        width="1.133"
        y="15.655"
        height="2.268"
      />
      <rect
        fill="#808080"
        x="27.975"
        width="1.133"
        y="16.767"
        height="0.566"
      />
    </g>
    <rect
      fill="#8C8C8C"
      x="24.148"
      width="1.559"
      y="14.75"
      height="1.984"
    />
    <g>
      <rect
        fill="#A9A9A9"
        stroke-width="0.05"
        stroke="#000000"
        x="24.362"
        width="1.133"
        y="15.655"
        height="2.268"
      />
      <rect
        fill="#808080"
        x="24.362"
        width="1.133"
        y="16.767"
        height="0.566"
      />
    </g>
  </g>
  <g
    id="MOSFET"
    gorn="0.14">
    <g
      id="Legs_1_"
      gorn="0.14.0">
      <rect
        fill="#8C8C8C"
        x="63.354"
        width="0.992"
        y="36.978"
        height="1.984"
      />
      <g>
        <rect
          fill="#A9A9A9"
          stroke-width="0.05"
          stroke="#000000"
          x="63.565"
          width="0.566"
          y="35.771"
          height="2.269"
        />
        <rect
          fill="#808080"
          x="63.565"
          width="0.566"
          y="36.359"
          height="0.566"
        />
      </g>
      <rect
        fill="#8C8C8C"
        x="59.664"
        width="2.836"
        y="36.979"
        height="1.984"
      />
      <g>
        <rect
          fill="#A9A9A9"
          stroke-width="0.05"
          stroke="#000000"
          x="61.722"
          width="0.566"
          y="35.771"
          height="2.269"
        />
        <rect
          fill="#808080"
          x="61.722"
          width="0.566"
          y="36.359"
          height="0.566"
        />
      </g>
      <g>
        <rect
          fill="#A9A9A9"
          stroke-width="0.05"
          stroke="#000000"
          x="59.878"
          width="0.566"
          y="35.771"
          height="2.269"
        />
        <rect
          fill="#808080"
          x="59.878"
          width="0.566"
          y="36.359"
          height="0.566"
        />
      </g>
      <rect
        fill="#8C8C8C"
        x="57.822"
        width="0.992"
        y="36.978"
        height="1.984"
      />
      <g>
        <rect
          fill="#A9A9A9"
          stroke-width="0.05"
          stroke="#000000"
          x="58.034"
          width="0.566"
          y="35.771"
          height="2.269"
        />
        <rect
          fill="#808080"
          x="58.034"
          width="0.566"
          y="36.359"
          height="0.566"
        />
      </g>
    </g>
    <g
      id="Legs"
      gorn="0.14.1">
      <rect
        fill="#8C8C8C"
        x="63.354"
        width="0.992"
        y="20.701"
        height="1.984"
      />
      <g>
        <rect
          fill="#A9A9A9"
          stroke-width="0.05"
          stroke="#000000"
          x="63.565"
          width="0.566"
          y="21.598"
          height="2.268"
        />
        <rect
          fill="#808080"
          x="63.565"
          width="0.566"
          y="22.709"
          height="0.566"
        />
      </g>
      <rect
        fill="#8C8C8C"
        x="59.664"
        width="2.836"
        y="20.702"
        height="1.984"
      />
      <g>
        <rect
          fill="#A9A9A9"
          stroke-width="0.05"
          stroke="#000000"
          x="61.722"
          width="0.566"
          y="21.598"
          height="2.268"
        />
        <rect
          fill="#808080"
          x="61.722"
          width="0.566"
          y="22.709"
          height="0.566"
        />
      </g>
      <g>
        <rect
          fill="#A9A9A9"
          stroke-width="0.05"
          stroke="#000000"
          x="59.878"
          width="0.566"
          y="21.598"
          height="2.268"
        />
        <rect
          fill="#808080"
          x="59.878"
          width="0.566"
          y="22.709"
          height="0.566"
        />
      </g>
      <rect
        fill="#8C8C8C"
        x="57.822"
        width="0.992"
        y="20.701"
        height="1.984"
      />
      <g>
        <rect
          fill="#A9A9A9"
          stroke-width="0.05"
          stroke="#000000"
          x="58.034"
          width="0.566"
          y="21.598"
          height="2.268"
        />
        <rect
          fill="#808080"
          x="58.034"
          width="0.566"
          y="22.709"
          height="0.566"
        />
      </g>
    </g>
    <g
      id="IC_1_"
      gorn="0.14.2">
      <g>
        <path
          fill="#4D4D4D"
          stroke-width="0.5"
          d="M65.052,35.487c0,0.156-0.123,0.283-0.275,0.283h-7.385c-0.152,0-0.275-0.127-0.275-0.283V24.148c0-0.156,0.123-0.283,0.275-0.283h7.385c0.152,0,0.275,0.127,0.275,0.283V35.487z"
          stroke="#333333"
        />
        <path
          fill="none"
          stroke-width="0.25"
          d="M64.769,35.218c0,0.148-0.113,0.27-0.256,0.27h-6.857c-0.143,0-0.256-0.121-0.256-0.27"
          stroke="#333333"
        />
        <line
          stroke-linecap="round"
          x1="57.399"
          fill="none"
          x2="57.399"
          stroke-width="0.25"
          stroke="#4D4D4D"
          y1="35.218"
          y2="24.418"
        />
        <line
          stroke-linecap="round"
          x1="64.769"
          fill="none"
          x2="64.769"
          stroke-width="0.25"
          stroke="#4D4D4D"
          y1="24.418"
          y2="35.218"
        />
        <path
          stroke-linecap="round"
          fill="none"
          stroke-width="0.25"
          d="M57.399,24.418c0-0.148,0.113-0.27,0.256-0.27h6.857c0.143,0,0.256,0.121,0.256,0.27"
          stroke="#666666"
        />
        <g>
          <path
            fill="#1A1A1A"
            d="M62.19,27.958c-0.022,0.044-0.051,0.083-0.084,0.118c-0.104,0.106-0.241,0.16-0.415,0.16c-0.206,0-0.37-0.054-0.491-0.16c-0.122-0.106-0.183-0.25-0.183-0.43c0-0.182,0.06-0.324,0.18-0.431c0.119-0.105,0.28-0.159,0.482-0.159c0.178,0,0.318,0.054,0.423,0.16c0.035,0.035,0.064,0.074,0.088,0.119c0.019-0.026,0.039-0.05,0.061-0.072c0.095-0.095,0.223-0.143,0.384-0.143c0.166,0,0.298,0.048,0.396,0.143c0.098,0.095,0.147,0.222,0.147,0.383c0,0.159-0.05,0.287-0.147,0.382c-0.099,0.095-0.23,0.142-0.396,0.142c-0.161,0-0.29-0.047-0.386-0.142C62.228,28.007,62.208,27.983,62.19,27.958z M62.073,27.646c0-0.114-0.036-0.202-0.109-0.266s-0.176-0.096-0.308-0.096c-0.128,0-0.228,0.032-0.299,0.096s-0.106,0.151-0.106,0.266c0,0.113,0.035,0.202,0.106,0.266s0.171,0.096,0.299,0.096c0.132,0,0.234-0.032,0.308-0.096S62.073,27.76,62.073,27.646z M62.294,27.646c0,0.094,0.027,0.166,0.084,0.218c0.056,0.052,0.135,0.077,0.236,0.077c0.104,0,0.186-0.025,0.244-0.077c0.058-0.052,0.087-0.124,0.087-0.218s-0.029-0.167-0.087-0.219c-0.059-0.052-0.14-0.078-0.244-0.078c-0.102,0-0.181,0.026-0.237,0.078C62.321,27.479,62.294,27.553,62.294,27.646z"
          />
          <path
            fill="#1A1A1A"
            d="M62.559,29.581c-0.154,0-0.284-0.034-0.388-0.102c-0.105-0.068-0.209-0.186-0.311-0.352c-0.123-0.2-0.243-0.338-0.361-0.414c-0.054-0.034-0.113-0.061-0.178-0.078v0.945h-0.248v-1.186c0.224,0,0.412,0.05,0.564,0.148s0.302,0.268,0.449,0.508c0.066,0.109,0.134,0.187,0.203,0.232c0.069,0.044,0.156,0.066,0.258,0.066c0.119,0,0.216-0.031,0.288-0.095c0.073-0.063,0.109-0.147,0.109-0.252c0-0.108-0.045-0.192-0.134-0.253c-0.089-0.06-0.215-0.091-0.377-0.093v-0.216c0.236,0.004,0.42,0.058,0.55,0.16c0.129,0.103,0.194,0.246,0.194,0.432c0,0.164-0.058,0.297-0.172,0.397C62.894,29.531,62.744,29.581,62.559,29.581z"
          />
          <path
            fill="#1A1A1A"
            d="M61.295,29.945c0.186-0.104,0.448-0.154,0.789-0.154c0.35,0,0.619,0.051,0.81,0.154c0.189,0.104,0.285,0.25,0.285,0.439c0,0.191-0.096,0.338-0.285,0.44c-0.19,0.104-0.46,0.155-0.81,0.155c-0.341,0-0.604-0.052-0.789-0.155c-0.185-0.103-0.277-0.249-0.277-0.44C61.018,30.195,61.11,30.049,61.295,29.945z M61.467,30.657c0.144,0.062,0.351,0.095,0.62,0.095c0.288,0,0.503-0.029,0.646-0.091c0.142-0.061,0.213-0.153,0.213-0.276c0-0.122-0.071-0.213-0.213-0.273c-0.143-0.061-0.357-0.092-0.646-0.092c-0.27,0-0.477,0.031-0.62,0.095c-0.145,0.063-0.216,0.153-0.216,0.271C61.251,30.503,61.322,30.594,61.467,30.657z"
          />
          <path
            fill="#1A1A1A"
            d="M61.756,32.332c-0.226,0-0.405-0.054-0.538-0.16c-0.134-0.107-0.2-0.251-0.2-0.433c0-0.176,0.05-0.314,0.148-0.417c0.1-0.104,0.24-0.162,0.423-0.175v0.225c-0.108,0.01-0.192,0.045-0.251,0.108c-0.06,0.062-0.089,0.148-0.089,0.257s0.043,0.196,0.131,0.265c0.086,0.067,0.199,0.102,0.336,0.102c0.143,0,0.259-0.034,0.349-0.102c0.089-0.068,0.134-0.156,0.134-0.265c0-0.065-0.02-0.13-0.06-0.193c-0.039-0.063-0.089-0.11-0.148-0.141l0.012-0.186l1.134,0.135v0.892h-0.26v-0.733l-0.561-0.068c0.076,0.1,0.114,0.21,0.114,0.331c0,0.159-0.064,0.292-0.193,0.398C62.108,32.278,61.948,32.332,61.756,32.332z"
          />
          <path
            fill="#1A1A1A"
            d="M63.227,33.137v0.136v0.136l-2.153,0.637v-0.134v-0.136l0.627-0.171v-0.688l-0.627-0.172v-0.137v-0.137L63.227,33.137z M61.96,32.99v0.547l0.985-0.27L61.96,32.99z"
          />
        </g>
        <g>
          <path
            fill="#1A1A1A"
            d="M59.909,27.541v-0.41h0.203c0.005,0.151,0.035,0.26,0.091,0.325c0.057,0.066,0.159,0.114,0.31,0.145v0.169h-2.105v-0.114v-0.114H59.909z"
          />
          <path
            fill="#1A1A1A"
            d="M58.913,28.311h0.127h0.127l1.346,0.787v0.098v0.096h-1.377v0.246h-0.223v-0.246h-0.506v-0.218h0.506V28.311z M59.136,29.073h0.986l-0.954-0.544l-0.032-0.02V29.073z"
          />
          <path
            fill="#1A1A1A"
            d="M58.629,29.862c0.186-0.104,0.448-0.154,0.789-0.154c0.35,0,0.619,0.051,0.81,0.154c0.189,0.104,0.285,0.25,0.285,0.439c0,0.191-0.096,0.338-0.285,0.44c-0.19,0.104-0.46,0.155-0.81,0.155c-0.341,0-0.604-0.052-0.789-0.155c-0.185-0.103-0.277-0.249-0.277-0.44C58.352,30.112,58.444,29.966,58.629,29.862z M58.801,30.574c0.144,0.062,0.351,0.095,0.62,0.095c0.288,0,0.503-0.029,0.646-0.091c0.142-0.061,0.213-0.153,0.213-0.276c0-0.122-0.071-0.213-0.213-0.273c-0.143-0.061-0.357-0.092-0.646-0.092c-0.27,0-0.477,0.031-0.62,0.095c-0.145,0.063-0.216,0.153-0.216,0.271C58.585,30.42,58.656,30.511,58.801,30.574z"
          />
          <path
            fill="#1A1A1A"
            d="M58.913,31.047h0.127h0.127l1.346,0.787v0.098v0.096h-1.377v0.246h-0.223v-0.246h-0.506V31.81h0.506V31.047z M59.136,31.81h0.986l-0.954-0.544l-0.032-0.02V31.81z"
          />
        </g>
        <circle
          cy="25.579"
          r="0.875"
          cx="63.177"
        />
      </g>
    </g>
  </g>
  <g
    id="Text"
    gorn="0.15">
    <g
      transform="matrix(0.8882 0 0 1 55.8721 45.1104)">
      <g>
        <g>
          <text
            fill="#FFFFFF"
            font-size="5"
            font-family="Droid Sans">OUT-</text>
        </g>
      </g>
    </g>
    <g
      transform="matrix(0.8882 0 0 1 54.7471 4.7344)">
      <g>
        <g>
          <text
            fill="#FFFFFF"
            font-size="5"
            font-family="Droid Sans">OUT+</text>
        </g>
      </g>
    </g>
    <g
      transform="matrix(1 0 0 1 40.833 44.1924)">
      <g>
        <g>
          <text
            fill="#FFFFFF"
            font-size="3.5"
            font-family="Droid Sans">HW-107</text>
        </g>
      </g>
    </g>
    <g>
      <path
        fill="#FFFFFF"
        d="M35.053,44.514c0,0.058-0.021,0.108-0.064,0.151c-0.043,0.044-0.094,0.065-0.152,0.065c-0.061,0-0.113-0.021-0.158-0.063l-1.246-1.249h-0.129v1.092c0,0.062-0.021,0.112-0.064,0.155c-0.043,0.044-0.094,0.065-0.152,0.065c-0.061,0-0.113-0.021-0.156-0.065c-0.043-0.043-0.065-0.094-0.065-0.155v-2.621c0-0.062,0.021-0.112,0.065-0.155c0.043-0.044,0.095-0.065,0.156-0.065h1.2c0.133,0,0.248,0.047,0.343,0.14l0.283,0.283c0.094,0.096,0.14,0.211,0.14,0.344v0.217c0,0.133-0.046,0.248-0.14,0.344l-0.283,0.283c-0.096,0.093-0.21,0.14-0.343,0.14h-0.238l0.941,0.938C35.032,44.4,35.053,44.452,35.053,44.514z M33.303,42.98h0.98c0.014-0.003,0.027-0.009,0.039-0.018l0.28-0.276c0.007-0.012,0.012-0.024,0.014-0.039v-0.209c-0.002-0.015-0.007-0.027-0.014-0.039l-0.28-0.276c-0.012-0.009-0.024-0.015-0.039-0.018h-0.98V42.98z"
      />
      <path
        fill="#FFFFFF"
        d="M37.678,42.651c0,0.133-0.046,0.248-0.14,0.344l-0.206,0.206l0.206,0.202c0.094,0.096,0.14,0.211,0.14,0.344v0.217c0,0.133-0.046,0.248-0.14,0.344l-0.283,0.283c-0.096,0.093-0.21,0.14-0.343,0.14h-0.654c-0.133,0-0.248-0.047-0.343-0.14l-0.36-0.361c-0.042-0.044-0.063-0.096-0.063-0.157c0-0.058,0.021-0.108,0.064-0.151c0.043-0.044,0.095-0.065,0.155-0.065c0.058,0,0.109,0.021,0.153,0.065l0.357,0.357c0.012,0.01,0.024,0.016,0.039,0.018h0.649c0.014-0.002,0.027-0.01,0.039-0.021l0.281-0.275c0.007-0.012,0.011-0.024,0.014-0.038v-0.21c-0.002-0.015-0.007-0.027-0.014-0.039l-0.281-0.276c-0.011-0.009-0.024-0.015-0.038-0.018h-0.759c-0.061,0-0.113-0.021-0.156-0.063c-0.043-0.043-0.065-0.094-0.065-0.152c0-0.06,0.021-0.111,0.065-0.154s0.095-0.064,0.156-0.064h0.762c0.014-0.002,0.027-0.007,0.039-0.014l0.276-0.281c0.008-0.012,0.013-0.025,0.015-0.039v-0.214c-0.002-0.015-0.005-0.026-0.011-0.039l-0.281-0.276c-0.012-0.01-0.024-0.016-0.039-0.018h-0.651c-0.014,0.002-0.027,0.008-0.039,0.018l-0.357,0.357c-0.044,0.044-0.095,0.065-0.153,0.065c-0.06,0-0.112-0.021-0.155-0.065c-0.043-0.043-0.064-0.094-0.064-0.151c0-0.062,0.021-0.113,0.063-0.157l0.36-0.361c0.096-0.093,0.21-0.14,0.343-0.14h0.654c0.133,0,0.248,0.047,0.343,0.14l0.283,0.283c0.094,0.096,0.14,0.211,0.14,0.344V42.651z"
      />
    </g>
    <g>
      <path
        fill="#FFFFFF"
        d="M20.86,42.397c-0.008,0.012-0.014,0.024-0.016,0.039v1.525c0.002,0.015,0.007,0.027,0.016,0.039l0.276,0.277c0.012,0.01,0.024,0.016,0.039,0.018h0.652c0.014-0.002,0.027-0.007,0.039-0.014l0.356-0.361c0.044-0.043,0.095-0.065,0.153-0.065c0.061,0,0.112,0.021,0.155,0.065c0.043,0.043,0.064,0.094,0.064,0.155c0,0.058-0.021,0.109-0.063,0.153l-0.36,0.361c-0.096,0.093-0.21,0.14-0.343,0.14h-0.654c-0.133,0-0.248-0.047-0.343-0.14l-0.283-0.283c-0.093-0.096-0.14-0.211-0.14-0.344v-1.529c0-0.133,0.047-0.248,0.14-0.344l0.283-0.283c0.096-0.093,0.21-0.14,0.343-0.14h0.654c0.133,0,0.248,0.047,0.343,0.14l0.36,0.361c0.042,0.044,0.063,0.096,0.063,0.153c0,0.062-0.021,0.112-0.065,0.155c-0.043,0.044-0.095,0.065-0.156,0.065c-0.058,0-0.11-0.021-0.154-0.062l-0.356-0.361c-0.012-0.009-0.025-0.015-0.039-0.017h-0.65c-0.014,0.002-0.027,0.008-0.039,0.018L20.86,42.397z"
      />
      <path
        fill="#FFFFFF"
        d="M25.22,42.651c0,0.133-0.046,0.248-0.14,0.344l-0.206,0.206l0.206,0.202c0.094,0.096,0.14,0.211,0.14,0.344v0.217c0,0.133-0.046,0.248-0.14,0.344l-0.283,0.283c-0.096,0.093-0.21,0.14-0.343,0.14h-0.654c-0.133,0-0.248-0.047-0.343-0.14l-0.36-0.361c-0.042-0.044-0.063-0.096-0.063-0.157c0-0.058,0.021-0.108,0.064-0.151c0.043-0.044,0.095-0.065,0.155-0.065c0.058,0,0.109,0.021,0.153,0.065l0.357,0.357c0.012,0.01,0.024,0.016,0.039,0.018h0.649c0.014-0.002,0.027-0.01,0.039-0.021l0.281-0.275c0.007-0.012,0.011-0.024,0.014-0.038v-0.21c-0.002-0.015-0.007-0.027-0.014-0.039l-0.281-0.276c-0.011-0.009-0.024-0.015-0.038-0.018H23.69c-0.061,0-0.113-0.021-0.156-0.063c-0.043-0.043-0.065-0.094-0.065-0.152c0-0.06,0.021-0.111,0.065-0.154s0.095-0.064,0.156-0.064h0.762c0.014-0.002,0.027-0.007,0.039-0.014l0.276-0.281c0.008-0.012,0.013-0.025,0.015-0.039v-0.214c-0.002-0.015-0.005-0.026-0.011-0.039L24.49,42.12c-0.012-0.01-0.024-0.016-0.039-0.018H23.8c-0.014,0.002-0.027,0.008-0.039,0.018l-0.357,0.357c-0.044,0.044-0.095,0.065-0.153,0.065c-0.06,0-0.112-0.021-0.155-0.065c-0.043-0.043-0.064-0.094-0.064-0.151c0-0.062,0.021-0.113,0.063-0.157l0.36-0.361c0.096-0.093,0.21-0.14,0.343-0.14h0.654c0.133,0,0.248,0.047,0.343,0.14l0.283,0.283c0.094,0.096,0.14,0.211,0.14,0.344V42.651z"
      />
    </g>
    <g>
      <path
        fill="#FFFFFF"
        d="M42.651,24.897c-0.008,0.012-0.014,0.024-0.016,0.039v1.525c0.002,0.015,0.008,0.027,0.016,0.039l0.277,0.277c0.012,0.01,0.023,0.016,0.038,0.018h0.652c0.014-0.002,0.026-0.007,0.038-0.014l0.357-0.361c0.043-0.043,0.094-0.065,0.152-0.065c0.061,0,0.111,0.021,0.154,0.065c0.043,0.043,0.064,0.094,0.064,0.155c0,0.058-0.021,0.109-0.062,0.153l-0.36,0.361c-0.096,0.093-0.21,0.14-0.343,0.14h-0.654c-0.133,0-0.248-0.047-0.344-0.14l-0.283-0.283c-0.094-0.096-0.141-0.211-0.141-0.344v-1.529c0-0.133,0.047-0.248,0.141-0.344l0.283-0.283c0.096-0.093,0.211-0.14,0.344-0.14h0.654c0.133,0,0.247,0.047,0.343,0.14l0.36,0.361c0.042,0.044,0.062,0.096,0.062,0.153c0,0.062-0.021,0.112-0.064,0.155c-0.043,0.044-0.096,0.065-0.156,0.065c-0.058,0-0.109-0.021-0.153-0.062l-0.356-0.361c-0.012-0.009-0.025-0.015-0.039-0.017h-0.649c-0.015,0.002-0.026,0.008-0.038,0.018L42.651,24.897z"
      />
      <path
        fill="#FFFFFF"
        d="M46.791,26.796c0.061,0,0.112,0.021,0.155,0.064s0.064,0.094,0.064,0.151c0,0.06-0.021,0.112-0.064,0.155c-0.043,0.042-0.095,0.063-0.155,0.063h-1.747c-0.061,0-0.112-0.021-0.155-0.063c-0.044-0.043-0.065-0.096-0.065-0.155c0-0.058,0.021-0.108,0.065-0.151c0.043-0.043,0.095-0.064,0.155-0.064h0.654v-1.889l-0.502,0.508c-0.045,0.044-0.096,0.065-0.153,0.065c-0.06,0-0.112-0.021-0.155-0.065c-0.043-0.043-0.064-0.094-0.064-0.151c0-0.062,0.021-0.113,0.063-0.157l0.875-0.875c0.044-0.043,0.097-0.063,0.157-0.063c0.059,0,0.109,0.021,0.152,0.065c0.043,0.043,0.064,0.095,0.064,0.155v2.407H46.791z"
      />
    </g>
    <g>
      <path
        fill="#FFFFFF"
        d="M49.067,24.813c-0.008,0.012-0.014,0.024-0.016,0.039v1.525c0.002,0.015,0.008,0.027,0.016,0.039l0.277,0.277c0.012,0.01,0.023,0.016,0.038,0.018h0.652c0.014-0.002,0.026-0.007,0.038-0.014l0.357-0.361c0.043-0.043,0.094-0.065,0.152-0.065c0.061,0,0.111,0.021,0.154,0.065c0.043,0.043,0.064,0.094,0.064,0.155c0,0.058-0.021,0.109-0.062,0.153l-0.36,0.361c-0.096,0.093-0.21,0.14-0.343,0.14h-0.654c-0.133,0-0.248-0.047-0.344-0.14l-0.283-0.283c-0.094-0.096-0.141-0.211-0.141-0.344v-1.529c0-0.133,0.047-0.248,0.141-0.344l0.283-0.283c0.096-0.093,0.211-0.14,0.344-0.14h0.654c0.133,0,0.247,0.047,0.343,0.14l0.36,0.361c0.042,0.044,0.062,0.096,0.062,0.153c0,0.062-0.021,0.112-0.064,0.155c-0.043,0.044-0.096,0.065-0.156,0.065c-0.058,0-0.109-0.021-0.153-0.062l-0.356-0.361c-0.012-0.009-0.025-0.015-0.039-0.017h-0.649c-0.015,0.002-0.026,0.008-0.038,0.018L49.067,24.813z"
      />
      <path
        fill="#FFFFFF"
        d="M51.985,26.709h1.225c0.059,0,0.109,0.021,0.152,0.065c0.043,0.043,0.064,0.094,0.064,0.151c0,0.062-0.021,0.112-0.064,0.155c-0.043,0.044-0.094,0.065-0.152,0.065h-1.75c-0.061,0-0.112-0.021-0.155-0.065c-0.044-0.043-0.065-0.094-0.065-0.151c0-0.062,0.021-0.113,0.063-0.157l1.669-1.67c0.01-0.012,0.016-0.024,0.018-0.039v-0.209c-0.002-0.015-0.008-0.027-0.018-0.039l-0.275-0.279c-0.012-0.008-0.025-0.012-0.039-0.015H52.01c-0.015,0.003-0.026,0.007-0.038,0.015l-0.357,0.359c-0.045,0.043-0.096,0.063-0.154,0.063c-0.061,0-0.112-0.021-0.155-0.065c-0.044-0.043-0.065-0.094-0.065-0.151c0-0.062,0.021-0.113,0.063-0.157l0.36-0.361c0.096-0.093,0.211-0.14,0.344-0.14h0.654c0.133,0,0.247,0.047,0.343,0.14l0.283,0.283c0.094,0.096,0.14,0.211,0.14,0.344v0.217c0,0.133-0.046,0.248-0.14,0.344L51.985,26.709z"
      />
    </g>
    <g>
      <path
        fill="#FFFFFF"
        d="M39.303,14.722c0,0.058-0.021,0.109-0.064,0.152c-0.043,0.043-0.094,0.065-0.152,0.065c-0.061,0-0.113-0.021-0.158-0.063l-1.246-1.25h-0.129v1.092c0,0.061-0.021,0.113-0.064,0.156c-0.043,0.043-0.094,0.065-0.152,0.065c-0.061,0-0.113-0.021-0.156-0.065c-0.043-0.043-0.065-0.095-0.065-0.156v-2.621c0-0.061,0.021-0.113,0.065-0.156c0.043-0.043,0.095-0.065,0.156-0.065h1.2c0.133,0,0.248,0.047,0.343,0.14l0.283,0.283c0.094,0.096,0.14,0.21,0.14,0.343v0.217c0,0.133-0.046,0.248-0.14,0.343l-0.283,0.283c-0.096,0.093-0.21,0.14-0.343,0.14h-0.238l0.941,0.938C39.282,14.608,39.303,14.661,39.303,14.722z M37.553,13.188h0.98c0.014-0.002,0.027-0.008,0.039-0.018l0.28-0.276c0.007-0.012,0.012-0.024,0.014-0.039v-0.21c-0.002-0.014-0.007-0.027-0.014-0.039l-0.28-0.276c-0.012-0.009-0.024-0.015-0.039-0.018h-0.98V13.188z"
      />
      <path
        fill="#FFFFFF"
        d="M41.708,14.504c0.061,0,0.112,0.021,0.156,0.064c0.043,0.042,0.064,0.093,0.064,0.151c0,0.06-0.021,0.112-0.064,0.155c-0.044,0.042-0.096,0.064-0.156,0.064h-1.747c-0.061,0-0.113-0.021-0.156-0.064c-0.043-0.043-0.065-0.095-0.065-0.155c0-0.058,0.021-0.108,0.065-0.151c0.043-0.043,0.095-0.064,0.156-0.064h0.655v-1.889l-0.503,0.507c-0.044,0.044-0.095,0.065-0.153,0.065c-0.06,0-0.112-0.021-0.155-0.065c-0.043-0.043-0.064-0.094-0.064-0.152c0-0.061,0.021-0.113,0.063-0.158l0.875-0.875c0.045-0.042,0.097-0.063,0.158-0.063c0.058,0,0.108,0.021,0.152,0.065c0.043,0.043,0.064,0.095,0.064,0.156v2.408H41.708z"
      />
    </g>
    <g>
      <path
        fill="#FFFFFF"
        d="M19.803,14.722c0,0.058-0.021,0.109-0.064,0.152c-0.043,0.043-0.094,0.065-0.152,0.065c-0.061,0-0.113-0.021-0.158-0.063l-1.246-1.25h-0.129v1.092c0,0.061-0.021,0.113-0.064,0.156c-0.043,0.043-0.094,0.065-0.152,0.065c-0.061,0-0.113-0.021-0.156-0.065c-0.043-0.043-0.065-0.095-0.065-0.156v-2.621c0-0.061,0.021-0.113,0.065-0.156c0.043-0.043,0.095-0.065,0.156-0.065h1.2c0.133,0,0.248,0.047,0.343,0.14l0.283,0.283c0.094,0.096,0.14,0.21,0.14,0.343v0.217c0,0.133-0.046,0.248-0.14,0.343l-0.283,0.283c-0.096,0.093-0.21,0.14-0.343,0.14h-0.238l0.941,0.938C19.782,14.608,19.803,14.661,19.803,14.722z M18.053,13.188h0.98c0.014-0.002,0.027-0.008,0.039-0.018l0.28-0.276c0.007-0.012,0.012-0.024,0.014-0.039v-0.21c-0.002-0.014-0.007-0.027-0.014-0.039l-0.28-0.276c-0.012-0.009-0.024-0.015-0.039-0.018h-0.98V13.188z"
      />
      <path
        fill="#FFFFFF"
        d="M20.986,14.501h1.225c0.058,0,0.109,0.021,0.152,0.065c0.043,0.043,0.064,0.094,0.064,0.152c0,0.061-0.021,0.113-0.064,0.156c-0.043,0.043-0.094,0.065-0.152,0.065h-1.75c-0.061,0-0.113-0.021-0.156-0.065c-0.043-0.043-0.065-0.094-0.065-0.152c0-0.061,0.021-0.113,0.063-0.158l1.669-1.669c0.009-0.012,0.015-0.024,0.018-0.039v-0.21c-0.002-0.014-0.008-0.027-0.018-0.039l-0.276-0.28c-0.012-0.007-0.024-0.012-0.039-0.014h-0.647c-0.014,0.002-0.027,0.007-0.039,0.014l-0.357,0.36c-0.044,0.042-0.096,0.063-0.154,0.063c-0.061,0-0.113-0.021-0.156-0.065c-0.043-0.043-0.065-0.094-0.065-0.152c0-0.061,0.021-0.113,0.063-0.158l0.36-0.36c0.096-0.093,0.21-0.14,0.343-0.14h0.654c0.133,0,0.248,0.047,0.343,0.14l0.283,0.283c0.094,0.096,0.14,0.21,0.14,0.343v0.217c0,0.133-0.046,0.248-0.14,0.343L20.986,14.501z"
      />
    </g>
    <g>
      <path
        fill="#FFFFFF"
        d="M47.104,7.623c0.058,0,0.108,0.021,0.151,0.064c0.044,0.043,0.065,0.094,0.065,0.152c0,0.061-0.021,0.113-0.063,0.158l-1.249,1.246v0.129h1.092c0.061,0,0.112,0.021,0.155,0.064c0.044,0.043,0.065,0.094,0.065,0.152c0,0.061-0.021,0.113-0.065,0.156c-0.043,0.043-0.095,0.065-0.155,0.065h-2.621c-0.062,0-0.113-0.021-0.156-0.065c-0.043-0.043-0.064-0.095-0.064-0.156v-1.2c0-0.133,0.047-0.248,0.14-0.343l0.283-0.283c0.096-0.094,0.21-0.14,0.343-0.14h0.217c0.134,0,0.248,0.046,0.344,0.14l0.283,0.283c0.094,0.096,0.141,0.21,0.141,0.343v0.238l0.938-0.941C46.991,7.644,47.043,7.623,47.104,7.623z M45.571,9.373v-0.98c-0.003-0.014-0.009-0.027-0.018-0.039l-0.277-0.28c-0.012-0.007-0.023-0.012-0.038-0.014h-0.21c-0.014,0.002-0.027,0.007-0.039,0.014l-0.275,0.28c-0.01,0.012-0.016,0.024-0.018,0.039v0.98H45.571z"
      />
      <path
        fill="#FFFFFF"
        d="M44.259,6.856V5.218c0-0.061,0.021-0.112,0.064-0.156c0.042-0.043,0.094-0.064,0.154-0.064c0.057,0,0.107,0.021,0.15,0.064c0.043,0.043,0.064,0.095,0.064,0.156v1.53h0.441V5.764c0-0.133,0.047-0.248,0.14-0.343l0.283-0.283c0.096-0.094,0.21-0.14,0.343-0.14h0.654c0.134,0,0.248,0.046,0.344,0.14l0.283,0.283c0.094,0.096,0.141,0.21,0.141,0.343v0.654c0,0.133-0.047,0.248-0.141,0.343l-0.36,0.36c-0.044,0.042-0.097,0.063-0.157,0.063c-0.059,0-0.109-0.021-0.152-0.064s-0.064-0.095-0.064-0.155c0-0.058,0.021-0.109,0.064-0.153l0.357-0.357c0.01-0.012,0.016-0.024,0.019-0.039V5.768c-0.003-0.014-0.01-0.027-0.021-0.039L46.59,5.449c-0.012-0.007-0.024-0.011-0.039-0.014H45.9c-0.014,0.002-0.026,0.005-0.038,0.011l-0.276,0.281c-0.01,0.012-0.017,0.024-0.019,0.039v1.09c0,0.091-0.032,0.169-0.096,0.233c-0.064,0.064-0.142,0.097-0.232,0.097h-0.652c-0.092,0-0.168-0.032-0.232-0.096C44.29,7.024,44.259,6.947,44.259,6.856z"
      />
    </g>
    <g>
      <path
        fill="#FFFFFF"
        d="M47.104,33.04c0.058,0,0.108,0.021,0.151,0.064c0.044,0.043,0.065,0.094,0.065,0.152c0,0.061-0.021,0.113-0.063,0.157l-1.249,1.246v0.13h1.092c0.061,0,0.112,0.021,0.155,0.064c0.044,0.043,0.065,0.094,0.065,0.152c0,0.061-0.021,0.112-0.065,0.155c-0.043,0.044-0.095,0.065-0.155,0.065h-2.621c-0.062,0-0.113-0.021-0.156-0.065c-0.043-0.043-0.064-0.095-0.064-0.155v-1.201c0-0.133,0.047-0.247,0.14-0.343l0.283-0.283c0.096-0.094,0.21-0.14,0.343-0.14h0.217c0.134,0,0.248,0.046,0.344,0.14l0.283,0.283c0.094,0.096,0.141,0.21,0.141,0.343v0.238l0.938-0.941C46.991,33.061,47.043,33.04,47.104,33.04z M45.571,34.79v-0.98c-0.003-0.014-0.009-0.027-0.018-0.039l-0.277-0.279c-0.012-0.008-0.023-0.012-0.038-0.014h-0.21c-0.014,0.002-0.027,0.006-0.039,0.014l-0.275,0.279c-0.01,0.012-0.016,0.025-0.018,0.039v0.98H45.571z"
      />
      <path
        fill="#FFFFFF"
        d="M47.321,31.181v0.654c0,0.133-0.047,0.248-0.141,0.344l-0.283,0.283c-0.096,0.094-0.21,0.141-0.344,0.141h-1.092c-0.133,0-0.247-0.047-0.343-0.141l-0.721-0.721c-0.093-0.096-0.14-0.211-0.14-0.344v-0.325c0-0.061,0.021-0.112,0.064-0.155c0.042-0.043,0.094-0.064,0.154-0.064c0.057,0,0.107,0.021,0.15,0.064s0.064,0.095,0.064,0.156v0.322c0.003,0.014,0.008,0.026,0.018,0.038l0.717,0.718c0.012,0.006,0.025,0.011,0.039,0.014h0.108v-0.984c0-0.133,0.046-0.247,0.14-0.343l0.28-0.283c0.096-0.094,0.21-0.14,0.343-0.14h0.217c0.134,0,0.248,0.046,0.344,0.14l0.283,0.283C47.274,30.934,47.321,31.048,47.321,31.181z M46.887,31.832v-0.65c-0.003-0.014-0.007-0.026-0.015-0.038l-0.281-0.276c-0.012-0.008-0.024-0.013-0.039-0.015h-0.213c-0.014,0.002-0.027,0.007-0.039,0.015l-0.276,0.276c-0.008,0.012-0.013,0.025-0.015,0.039v0.982h0.543c0.014-0.003,0.026-0.008,0.038-0.014l0.28-0.28C46.878,31.859,46.884,31.847,46.887,31.832z"
      />
    </g>
    <g>
      <path
        fill="#FFFFFF"
        d="M71.314,18.814c0,0.171-0.061,0.318-0.181,0.441l-0.266,0.266l0.266,0.261c0.12,0.123,0.181,0.27,0.181,0.441v0.279c0,0.171-0.061,0.318-0.181,0.441l-0.364,0.364c-0.123,0.12-0.27,0.18-0.441,0.18h-1.543c-0.078,0-0.145-0.028-0.2-0.083c-0.056-0.056-0.083-0.121-0.083-0.196v-3.375c0-0.078,0.027-0.145,0.083-0.201c0.056-0.055,0.122-0.083,0.2-0.083h1.543c0.172,0,0.318,0.06,0.441,0.18l0.364,0.364c0.12,0.123,0.181,0.27,0.181,0.441V18.814z M69.064,18.107v1.134h1.26c0.019-0.003,0.035-0.011,0.05-0.022l0.36-0.36c0.009-0.015,0.015-0.032,0.018-0.05v-0.271c-0.003-0.018-0.009-0.035-0.018-0.05l-0.36-0.36c-0.015-0.011-0.031-0.019-0.05-0.022H69.064z M70.752,20.497v-0.271c-0.003-0.018-0.009-0.035-0.018-0.05l-0.361-0.354c-0.015-0.012-0.031-0.02-0.05-0.023h-1.259v1.129h1.26c0.019-0.003,0.035-0.011,0.05-0.022l0.36-0.36C70.743,20.532,70.749,20.515,70.752,20.497z"
      />
    </g>
    <g>
      <path
        fill="#FFFFFF"
        d="M71.315,26.856c0,0.17-0.061,0.317-0.181,0.44l-0.266,0.266l0.266,0.261c0.12,0.123,0.181,0.27,0.181,0.441v0.279c0,0.17-0.061,0.317-0.181,0.44l-0.364,0.364c-0.123,0.12-0.27,0.18-0.441,0.18h-1.543c-0.078,0-0.145-0.027-0.2-0.082c-0.056-0.057-0.083-0.121-0.083-0.196v-3.375c0-0.078,0.027-0.146,0.083-0.2c0.056-0.056,0.122-0.084,0.2-0.084h1.543c0.172,0,0.318,0.061,0.441,0.181l0.364,0.364c0.12,0.123,0.181,0.27,0.181,0.441V26.856z M69.065,26.149v1.134h1.26c0.019-0.003,0.035-0.011,0.05-0.022l0.36-0.359c0.009-0.016,0.015-0.031,0.018-0.05v-0.271c-0.003-0.018-0.009-0.035-0.018-0.05l-0.36-0.36c-0.015-0.011-0.031-0.018-0.05-0.021H69.065z M70.753,28.539v-0.271c-0.003-0.018-0.009-0.035-0.018-0.05l-0.361-0.354c-0.015-0.012-0.031-0.02-0.05-0.023h-1.259v1.13h1.26c0.019-0.003,0.035-0.011,0.05-0.022l0.36-0.359C70.744,28.573,70.75,28.558,70.753,28.539z"
      />
      <line
        stroke-linecap="round"
        x1="72.354"
        fill="none"
        x2="74.621"
        stroke-width="0.6"
        stroke="#FFFFFF"
        y1="27.56"
        y2="27.56"
      />
    </g>
    <line
      stroke-linecap="round"
      x1="72.354"
      fill="none"
      x2="74.621"
      stroke-width="0.6"
      stroke="#FFFFFF"
      y1="19.518"
      y2="19.518"
    />
    <line
      stroke-linecap="round"
      x1="73.487"
      fill="none"
      x2="73.487"
      stroke-width="0.6"
      stroke="#FFFFFF"
      y1="20.652"
      y2="18.384"
    />
    <line
      stroke-linecap="round"
      x1="12.537"
      fill="none"
      x2="15.938"
      stroke-width="0.75"
      stroke="#FFFFFF"
      id="_x2D_"
      gorn="0.15.15"
      y1="41.548"
      y2="41.548"
    />
    <g
      id="_x2B__1_"
      gorn="0.15.16">
      <line
        stroke-linecap="round"
        x1="12.537"
        fill="none"
        x2="15.938"
        stroke-width="0.75"
        stroke="#FFFFFF"
        y1="4.383"
        y2="4.383"
      />
      <line
        stroke-linecap="round"
        x1="14.237"
        fill="none"
        x2="14.237"
        stroke-width="0.75"
        stroke="#FFFFFF"
        id="_x2B_"
        gorn="0.15.16.1"
        y1="6.084"
        y2="2.683"
      />
    </g>
  </g>
  <g
    id="Connection_Pads"
    gorn="0.16">
    <g>
      <g>
        <path
          fill="#8C8C8C"
          d="M68.892,9.728v6.378h6.379V9.728H68.892z M72.081,14.547c-0.9,0-1.63-0.729-1.63-1.63s0.729-1.63,1.63-1.63s1.63,0.729,1.63,1.63S72.981,14.547,72.081,14.547z"
          id="connector3pin"
          gorn="0.16.0.0.0"
        />
      </g>
    </g>
    <g>
      <g>
        <path
          fill="#8C8C8C"
          d="M68.892,30.665v6.378h6.379v-6.378H68.892z M72.081,35.483c-0.9,0-1.63-0.729-1.63-1.629s0.729-1.631,1.63-1.631s1.63,0.73,1.63,1.631S72.981,35.483,72.081,35.483z"
          id="connector2pin"
          gorn="0.16.1.0.0"
        />
      </g>
    </g>
    <g>
      <g>
        <path
          fill="#8C8C8C"
          d="M68.892,39.169v6.378h6.379v-6.378H68.892z M72.081,43.987c-0.9,0-1.63-0.729-1.63-1.629s0.729-1.631,1.63-1.631s1.63,0.73,1.63,1.631S72.981,43.987,72.081,43.987z"
          id="connector1pin"
          gorn="0.16.2.0.0"
        />
      </g>
    </g>
    <g>
      <g>
        <path
          fill="#8C8C8C"
          d="M68.829,1.257v6.378h6.379V1.257H68.829z M72.019,6.076c-0.9,0-1.63-0.729-1.63-1.63s0.729-1.63,1.63-1.63s1.63,0.729,1.63,1.63S72.919,6.076,72.019,6.076z"
          id="connector4pin"
          gorn="0.16.3.0.0"
        />
      </g>
    </g>
    <g>
      <g>
        <path
          fill="#8C8C8C"
          d="M4.956,39.106v6.378h6.379v-6.378H4.956z M8.146,43.925c-0.9,0-1.63-0.729-1.63-1.629s0.729-1.631,1.63-1.631s1.63,0.73,1.63,1.631S9.046,43.925,8.146,43.925z"
          id="connector0pin"
          gorn="0.16.4.0.0"
        />
      </g>
    </g>
    <g>
      <g>
        <path
          fill="#8C8C8C"
          d="M4.956,1.194v6.378h6.379V1.194H4.956z M8.146,6.013c-0.9,0-1.63-0.729-1.63-1.63s0.729-1.63,1.63-1.63s1.63,0.729,1.63,1.63S9.046,6.013,8.146,6.013z"
          id="connector5pin"
          gorn="0.16.5.0.0"
        />
      </g>
    </g>
  </g>
</svg>
